<svg width="48" height="48" viewBox="0 0 48 48" fill="none" xmlns="http://www.w3.org/2000/svg">
<g clip-path="url(#clip0_436_2265)">
<path d="M45.232 22.598C44.6606 15.6939 39.6328 11.5532 33.9641 11.5532C29.2487 11.5532 25.926 14.5572 24.0003 18.0268L22.5938 20.1033V36.4931L24.0003 38.8106L35.7184 39.0608L45.232 22.598Z" fill="#F25A3C"/>
<path d="M14.0355 11.5532C8.38394 11.5532 3.34069 15.6739 2.76758 22.598L12.4705 38.5645L23.9993 38.8105V18.0268C22.0736 14.5572 18.7496 11.5532 14.0355 11.5532Z" fill="#66CCFF"/>
<path d="M23.9995 31.0376C18.9057 31.0376 14.4619 34.1322 12.4707 38.5649L13.4039 40.1005C15.888 42.2469 18.7556 44.7081 21.3788 46.9383C22.2838 47.7079 23.1339 48.0064 23.9995 48C25.0821 47.992 26.1893 47.4963 27.4636 46.724C29.8931 44.6211 32.9397 41.8966 35.351 39.6958L35.7177 39.0611C33.8437 34.368 29.2783 31.0376 23.9995 31.0376Z" fill="#FFDF40"/>
<path d="M27.4642 46.724C29.8936 44.6211 32.9403 41.8966 35.3515 39.6958L35.7182 39.0611C33.8442 34.368 29.2788 31.0376 24 31.0376V48C25.0826 47.992 26.1899 47.4963 27.4642 46.724Z" fill="#FFBE40"/>
<path d="M39.4704 24.4799C39.4704 27.3396 37.8675 29.8835 31.8293 35.3695C30.6627 36.4299 30.5573 38.302 31.714 39.4558C32.671 40.4128 34.2534 40.4719 35.3502 39.6955C42.3163 33.338 45.3343 29.3742 45.3343 23.7766C45.3343 23.3702 45.263 22.9922 45.2304 22.5981H40.8771C40.1003 22.5981 39.4705 23.2279 39.4705 24.0047V24.4799H39.4704Z" fill="#FFCCB3"/>
<path d="M11.341 11.346C8.23806 11.346 5.71484 8.82277 5.71484 5.71988C5.71484 2.61699 8.23806 0 11.341 0C14.4438 0 16.9671 2.61699 16.9671 5.71988C16.9671 8.82277 14.4438 11.346 11.341 11.346Z" fill="#FFE6CC"/>
<path d="M36.6574 11.346C33.5545 11.346 31.0312 8.82277 31.0312 5.71988C31.0312 2.61699 33.5545 0 36.6574 0C39.7603 0 42.2835 2.61699 42.2835 5.71988C42.2835 8.82277 39.7603 11.346 36.6574 11.346Z" fill="#FFCCB3"/>
<path d="M13.4039 40.1002C14.3925 40.4115 15.5348 40.2053 16.2843 39.4558C17.441 38.302 17.3356 36.4298 16.169 35.3695C10.1308 29.8835 8.52788 27.3396 8.52788 24.4799V24.0047C8.52788 23.2279 7.89813 22.5981 7.12135 22.5981H2.76796C2.73533 22.9922 2.66406 23.3702 2.66406 23.7766C2.66406 29.9122 6.82495 34.4168 13.4039 40.1002Z" fill="#FFE6CC"/>
<path d="M23.9992 31.0374C27.1064 31.0374 29.6253 28.5185 29.6253 25.4113C29.6253 22.3041 27.1064 19.7852 23.9992 19.7852C20.8919 19.7852 18.373 22.3041 18.373 25.4113C18.373 28.5185 20.8919 31.0374 23.9992 31.0374Z" fill="#FFE6CC"/>
<path d="M29.6261 25.4113C29.6261 22.3084 27.1029 19.7852 24 19.7852V31.0374C27.1029 31.0374 29.6261 28.5142 29.6261 25.4113Z" fill="#FFCCB3"/>
</g>
<defs>
<clipPath id="clip0_436_2265">
<rect width="48" height="48" fill="white"/>
</clipPath>
</defs>
</svg>
