<svg width="48" height="48" viewBox="0 0 48 48" fill="none" xmlns="http://www.w3.org/2000/svg">
<g clip-path="url(#clip0_436_2200)">
<path fill-rule="evenodd" clip-rule="evenodd" d="M38.925 32.5364C38.8279 32.2348 38.6377 31.9717 38.3816 31.7852C38.1255 31.5986 37.8168 31.498 37.5 31.498C37.1832 31.498 36.8745 31.5986 36.6184 31.7852C36.3623 31.9717 36.1721 32.2348 36.075 32.5364L34.65 36.9036L30.285 38.3234C29.67 38.5244 29.25 39.1004 29.25 39.7499C29.25 40.3994 29.67 40.9754 30.285 41.1764L34.65 42.5961L36.075 46.9634C36.1721 47.265 36.3623 47.528 36.6184 47.7146C36.8745 47.9012 37.1832 48.0017 37.5 48.0017C37.8168 48.0017 38.1255 47.9012 38.3816 47.7146C38.6377 47.528 38.8279 47.265 38.925 46.9634L40.35 42.5961L44.715 41.1764C45.33 40.9754 45.75 40.3994 45.75 39.7499C45.75 39.1004 45.33 38.5244 44.715 38.3234L40.35 36.9036L38.925 32.5364Z" fill="#29F5B7"/>
<path fill-rule="evenodd" clip-rule="evenodd" d="M2.78619e-07 27.7492C2.78619e-07 28.845 0.705 29.8192 1.7475 30.1582L12.765 33.7387L16.3425 44.751C16.508 45.2591 16.83 45.7018 17.2625 46.0158C17.6949 46.3297 18.2156 46.4988 18.75 46.4988C19.2844 46.4988 19.8051 46.3297 20.2375 46.0158C20.67 45.7018 20.992 45.2591 21.1575 44.751L24.7425 33.7387L35.7525 30.1582C36.2606 29.9925 36.7033 29.6703 37.0172 29.2378C37.3311 28.8052 37.5001 28.2844 37.5 27.75C37.5 26.6535 36.795 25.6807 35.7525 25.3417L24.7425 21.7612L21.1575 10.749C20.9924 10.2405 20.6705 9.79735 20.238 9.48307C19.8055 9.16879 19.2846 8.99951 18.75 8.99951C18.2154 8.99951 17.6945 9.16879 17.262 9.48307C16.8295 9.79735 16.5076 10.2405 16.3425 10.749L12.765 21.7612L1.7475 25.3417C1.23932 25.5071 0.796537 25.8291 0.482615 26.2616C0.168693 26.6941 -0.000250424 27.2148 2.78619e-07 27.7492Z" fill="#29DDF5"/>
<path fill-rule="evenodd" clip-rule="evenodd" d="M38.175 1.03637C38.0779 0.73477 37.8877 0.471747 37.6316 0.285161C37.3755 0.0985746 37.0668 -0.00195313 36.75 -0.00195312C36.4332 -0.00195312 36.1245 0.0985746 35.8684 0.285161C35.6123 0.471747 35.4221 0.73477 35.325 1.03637L33.165 7.66712L26.535 9.82337C25.92 10.0244 25.5 10.6004 25.5 11.2499C25.5 11.8994 25.92 12.4754 26.535 12.6764L33.165 14.8326L35.325 21.4634C35.4221 21.765 35.6123 22.028 35.8684 22.2146C36.1245 22.4012 36.4332 22.5017 36.75 22.5017C37.0668 22.5017 37.3755 22.4012 37.6316 22.2146C37.8877 22.028 38.0779 21.765 38.175 21.4634L40.335 14.8326L46.965 12.6764C47.58 12.4754 48 11.8994 48 11.2499C48 10.6004 47.58 10.0244 46.965 9.82337L40.335 7.66712L38.175 1.03637Z" fill="#A2EDF7"/>
<path fill-rule="evenodd" clip-rule="evenodd" d="M6 9.75H4.5C3.675 9.75 3 10.422 3 11.25C3 12.078 3.675 12.75 4.5 12.75H6V14.25C6 15.078 6.675 15.75 7.5 15.75C8.325 15.75 9 15.078 9 14.25V12.75H10.5C11.325 12.75 12 12.078 12 11.25C12 10.422 11.325 9.75 10.5 9.75H9V8.25C9 7.422 8.325 6.75 7.5 6.75C6.675 6.75 6 7.422 6 8.25V9.75Z" fill="#29B7F5"/>
</g>
<defs>
<clipPath id="clip0_436_2200">
<rect width="48" height="48" fill="white"/>
</clipPath>
</defs>
</svg>
