<svg width="48" height="48" viewBox="0 0 48 48" fill="none" xmlns="http://www.w3.org/2000/svg">
<g clip-path="url(#clip0_436_2170)">
<path d="M38 3V19.175C37.8797 19.1247 37.7504 19.0992 37.62 19.1H31.88C31.205 19.1 30.66 19.79 30.66 20.64V20.86H29.255C29.0782 20.8584 28.9033 20.8973 28.7439 20.974C28.5845 21.0506 28.4448 21.1628 28.3356 21.3019C28.2265 21.4411 28.1507 21.6034 28.1142 21.7764C28.0776 21.9495 28.0814 22.1286 28.125 22.3C28.2825 22.9175 28.565 23.496 28.955 24C29.2381 24.3898 29.6074 24.7091 30.0341 24.9328C30.4608 25.1566 30.9333 25.2788 31.415 25.29H30.28C29.9775 25.3081 29.6944 25.4448 29.4922 25.6704C29.29 25.896 29.185 26.1924 29.2 26.495V26.555C29.185 26.8576 29.29 27.154 29.4922 27.3796C29.6944 27.6052 29.9775 27.7419 30.28 27.76H30.445C28.25 27.76 26.475 30.01 26.475 32.76V42.5H26.25C25.9185 42.5 25.6005 42.6317 25.3661 42.8661C25.1317 43.1005 25 43.4185 25 43.75C25 44.0815 25.1317 44.3995 25.3661 44.6339C25.6005 44.8683 25.9185 45 26.25 45H3.5V11.685H12.86V3H38Z" fill="#EAF6FF"/>
<path d="M12.86 3V11.685H3.5L12.86 3ZM33 18H9C8.73478 18 8.48043 17.8946 8.29289 17.7071C8.10536 17.5196 8 17.2652 8 17C8 16.7348 8.10536 16.4804 8.29289 16.2929C8.48043 16.1054 8.73478 16 9 16H33C33.2652 16 33.5196 16.1054 33.7071 16.2929C33.8946 16.4804 34 16.7348 34 17C34 17.2652 33.8946 17.5196 33.7071 17.7071C33.5196 17.8946 33.2652 18 33 18ZM33 11H15.36C15.0948 11 14.8404 10.8946 14.6529 10.7071C14.4654 10.5196 14.36 10.2652 14.36 10C14.36 9.73478 14.4654 9.48043 14.6529 9.29289C14.8404 9.10536 15.0948 9 15.36 9H33C33.2652 9 33.5196 9.10536 33.7071 9.29289C33.8946 9.48043 34 9.73478 34 10C34 10.2652 33.8946 10.5196 33.7071 10.7071C33.5196 10.8946 33.2652 11 33 11ZM29 25H9C8.73478 25 8.48043 24.8946 8.29289 24.7071C8.10536 24.5196 8 24.2652 8 24C8 23.7348 8.10536 23.4804 8.29289 23.2929C8.48043 23.1054 8.73478 23 9 23H29C29.2652 23 29.5196 23.1054 29.7071 23.2929C29.8946 23.4804 30 23.7348 30 24C30 24.2652 29.8946 24.5196 29.7071 24.7071C29.5196 24.8946 29.2652 25 29 25ZM26.725 32H9C8.73478 32 8.48043 31.8946 8.29289 31.7071C8.10536 31.5196 8 31.2652 8 31C8 30.7348 8.10536 30.4804 8.29289 30.2929C8.48043 30.1054 8.73478 30 9 30H26.725C26.9902 30 27.2446 30.1054 27.4321 30.2929C27.6196 30.4804 27.725 30.7348 27.725 31C27.725 31.2652 27.6196 31.5196 27.4321 31.7071C27.2446 31.8946 26.9902 32 26.725 32ZM26.5 39H9C8.73478 39 8.48043 38.8946 8.29289 38.7071C8.10536 38.5196 8 38.2652 8 38C8 37.7348 8.10536 37.4804 8.29289 37.2929C8.48043 37.1054 8.73478 37 9 37H26.5C26.7652 37 27.0196 37.1054 27.2071 37.2929C27.3946 37.4804 27.5 37.7348 27.5 38C27.5 38.2652 27.3946 38.5196 27.2071 38.7071C27.0196 38.8946 26.7652 39 26.5 39Z" fill="#C6E3F4"/>
<path d="M40.4666 22.7447C39.9371 24.7113 38.4783 26.125 36.7604 26.125H29.2465C28.7063 26.1156 28.1754 25.9806 27.6949 25.7305C27.2144 25.4805 26.7971 25.122 26.4753 24.6828C26.0393 24.1167 25.7213 23.4671 25.5402 22.7732C25.4911 22.5778 25.4869 22.3736 25.528 22.1763C25.5692 21.9791 25.6545 21.794 25.7775 21.6353C25.9005 21.4767 26.0579 21.3488 26.2374 21.2615C26.417 21.1741 26.614 21.1297 26.8132 21.1315H28.396V20.8807C28.396 19.9117 29.0099 19.125 29.7703 19.125H36.2365C36.3834 19.1241 36.529 19.1532 36.6646 19.2105C36.9655 19.366 37.2152 19.6066 37.3832 19.9032C37.5512 20.1998 37.6303 20.5394 37.6109 20.8807V21.1315H39.1936C39.3898 21.1307 39.5837 21.1748 39.7607 21.2606C39.9376 21.3463 40.0931 21.4714 40.2156 21.6266C40.338 21.7818 40.4242 21.9629 40.4677 22.1566C40.5111 22.3502 40.5108 22.5513 40.4666 22.7447Z" fill="url(#paint0_linear_436_2170)"/>
<path d="M39.4983 27.5886V27.6614C39.5159 28.029 39.393 28.3889 39.1562 28.663C38.9194 28.937 38.5879 29.1031 38.2338 29.125H27.7662C27.4121 29.1031 27.0806 28.937 26.8438 28.663C26.607 28.3889 26.4841 28.029 26.5017 27.6614V27.5886C26.4841 27.221 26.607 26.8611 26.8438 26.587C27.0806 26.313 27.4121 26.1469 27.7662 26.125H38.2338C38.5879 26.1469 38.9194 26.313 39.1562 26.587C39.393 26.8611 39.5159 27.221 39.4983 27.5886Z" fill="#FFD600"/>
<path d="M42 34.4276V45H23V34.4276C23 31.4154 25.0408 29.0002 27.5646 29.0002H37.4354C39.9592 28.9731 42 31.4317 42 34.4276Z" fill="url(#paint1_linear_436_2170)"/>
<path d="M33 36.62C32.842 36.5837 32.6983 36.5074 32.5854 36.3999C32.4724 36.2923 32.3947 36.1578 32.3611 36.0118C32.3275 35.8657 32.3394 35.7139 32.3954 35.5737C32.4514 35.4335 32.5492 35.3105 32.6778 35.2188C32.8064 35.1272 32.9605 35.0705 33.1225 35.0553C33.2845 35.04 33.4479 35.0668 33.5941 35.1326C33.7403 35.1984 33.8634 35.3006 33.9493 35.4274C34.0352 35.5543 34.0805 35.7007 34.08 35.85C34.08 36.0834 34.1811 36.3072 34.3612 36.4723C34.5412 36.6373 34.7854 36.73 35.04 36.73C35.2946 36.73 35.5388 36.6373 35.7188 36.4723C35.8989 36.3072 36 36.0834 36 35.85C35.9839 35.3035 35.777 34.7762 35.4099 34.3454C35.0427 33.9146 34.5345 33.603 33.96 33.4564V32.88C33.96 32.6466 33.8589 32.4228 33.6788 32.2577C33.4988 32.0927 33.2546 32 33 32C32.7454 32 32.5012 32.0927 32.3212 32.2577C32.1411 32.4228 32.04 32.6466 32.04 32.88V33.4564C31.4655 33.603 30.9573 33.9146 30.5901 34.3454C30.223 34.7762 30.0161 35.3035 30 35.85C30.0154 36.1968 30.1053 36.5374 30.2645 36.8523C30.4237 37.1672 30.649 37.4503 30.9277 37.6852C31.2063 37.9202 31.5328 38.1025 31.8884 38.2218C32.244 38.341 32.6217 38.3947 33 38.38C33.158 38.4163 33.3017 38.4926 33.4146 38.6001C33.5276 38.7077 33.6053 38.8422 33.6389 38.9882C33.6725 39.1343 33.6606 39.2861 33.6046 39.4263C33.5486 39.5665 33.4508 39.6895 33.3222 39.7812C33.1936 39.8728 33.0395 39.9295 32.8775 39.9447C32.7155 39.96 32.5521 39.9332 32.4059 39.8674C32.2597 39.8016 32.1366 39.6994 32.0507 39.5726C31.9648 39.4457 31.9195 39.2993 31.92 39.15C31.92 38.9166 31.8189 38.6928 31.6388 38.5277C31.4588 38.3627 31.2146 38.27 30.96 38.27C30.7054 38.27 30.4612 38.3627 30.2812 38.5277C30.1011 38.6928 30 38.9166 30 39.15C30.0161 39.6965 30.223 40.2238 30.5901 40.6546C30.9573 41.0854 31.4655 41.397 32.04 41.5436V42.12C32.04 42.3534 32.1411 42.5772 32.3212 42.7423C32.5012 42.9073 32.7454 43 33 43C33.2546 43 33.4988 42.9073 33.6788 42.7423C33.8589 42.5772 33.96 42.3534 33.96 42.12V41.5436C34.5345 41.397 35.0427 41.0854 35.4099 40.6546C35.777 40.2238 35.9839 39.6965 36 39.15C35.9846 38.8032 35.8947 38.4626 35.7355 38.1477C35.5763 37.8328 35.351 37.5497 35.0723 37.3148C34.7937 37.0798 34.4672 36.8975 34.1116 36.7782C33.756 36.659 33.3783 36.6053 33 36.62Z" fill="#FFFCDC"/>
<path d="M44.5 46.625C44.5007 46.8222 44.4648 47.0176 44.3942 47.2C44.3236 47.3823 44.2197 47.548 44.0886 47.6874C43.9575 47.8269 43.8017 47.9373 43.6303 48.0124C43.4589 48.0875 43.2751 48.1258 43.0897 48.125H23.9103C23.5362 48.125 23.1775 47.967 22.9131 47.6857C22.6486 47.4043 22.5 47.0228 22.5 46.625C22.5 46.2272 22.6486 45.8456 22.9131 45.5643C23.1775 45.283 23.5362 45.125 23.9103 45.125H43.0897C43.4638 45.125 43.8225 45.283 44.0869 45.5643C44.3514 45.8456 44.5 46.2272 44.5 46.625Z" fill="url(#paint2_linear_436_2170)"/>
</g>
<defs>
<linearGradient id="paint0_linear_436_2170" x1="33.0034" y1="16.7651" x2="33.0034" y2="30.8791" gradientUnits="userSpaceOnUse">
<stop offset="0.2" stop-color="#FFDC00"/>
<stop offset="0.78" stop-color="#FD5B00"/>
</linearGradient>
<linearGradient id="paint1_linear_436_2170" x1="32.4856" y1="24.0559" x2="32.4856" y2="45.7978" gradientUnits="userSpaceOnUse">
<stop stop-color="#FFDC00"/>
<stop offset="1" stop-color="#FD5B00"/>
</linearGradient>
<linearGradient id="paint2_linear_436_2170" x1="33.5" y1="45.125" x2="33.5" y2="52.499" gradientUnits="userSpaceOnUse">
<stop stop-color="#FFDC00"/>
<stop offset="0.54" stop-color="#FD5B00"/>
</linearGradient>
<clipPath id="clip0_436_2170">
<rect width="48" height="48" fill="white"/>
</clipPath>
</defs>
</svg>
