<svg width="48" height="48" viewBox="0 0 48 48" fill="none" xmlns="http://www.w3.org/2000/svg">
<g clip-path="url(#clip0_436_2282)">
<path d="M5.71549 37.4114H6.74109C7.24085 37.4114 7.64603 37.0063 7.64603 36.5065C7.64603 36.0067 7.24085 35.6016 6.74109 35.6016H5.71549C5.21572 35.6016 4.81055 36.0067 4.81055 36.5065C4.81055 37.0063 5.21572 37.4114 5.71549 37.4114Z" fill="url(#paint0_linear_436_2282)"/>
<path d="M5.71549 40.6116H6.74109C7.24085 40.6116 7.64603 40.2065 7.64603 39.7067C7.64603 39.2069 7.24085 38.8018 6.74109 38.8018H5.71549C5.21572 38.8018 4.81055 39.2069 4.81055 39.7067C4.81055 40.2065 5.21572 40.6116 5.71549 40.6116Z" fill="url(#paint1_linear_436_2282)"/>
<path d="M5.71549 43.8113H6.74109C7.24085 43.8113 7.64603 43.4062 7.64603 42.9064C7.64603 42.4066 7.24085 42.0015 6.74109 42.0015H5.71549C5.21572 42.0015 4.81055 42.4066 4.81055 42.9064C4.81055 43.4062 5.21572 43.8113 5.71549 43.8113Z" fill="url(#paint2_linear_436_2282)"/>
<path d="M10.8492 -0.5H0.904941C0.405176 -0.5 0 -0.0948235 0 0.404941C0 0.904706 0.405176 1.30988 0.904941 1.30988H10.8491C11.3489 1.30988 11.7541 0.904706 11.7541 0.404941C11.7542 -0.0948235 11.349 -0.5 10.8492 -0.5ZM7.21741 3.67769C7.21741 3.17793 6.81224 2.77275 6.31247 2.77275H0.904941C0.405176 2.77275 0 3.17793 0 3.67769C0 3.9177 0.0953417 4.14787 0.265051 4.31758C0.434761 4.48729 0.664936 4.58264 0.904941 4.58264H6.31238C6.81224 4.58264 7.21741 4.17755 7.21741 3.67769ZM47.0951 42.4174H37.1508C36.6509 42.4174 36.2458 42.8225 36.2458 43.3223C36.2458 43.8221 36.651 44.2272 37.1508 44.2272H47.095C47.5947 44.2272 47.9999 43.8221 47.9999 43.3223C48 42.8225 47.5948 42.4174 47.0951 42.4174ZM43.4633 46.5951C43.4633 46.0953 43.0581 45.6901 42.5583 45.6901H37.1509C36.9109 45.6901 36.6807 45.7855 36.511 45.9552C36.3413 46.1249 36.2459 46.3551 36.2459 46.5951C36.2459 46.8351 36.3413 47.0652 36.511 47.235C36.6807 47.4047 36.9109 47.5 37.1509 47.5H42.5583C43.0581 47.5 43.4633 47.0948 43.4633 46.5951ZM37.1508 8.25501H47.095C47.5947 8.25501 47.9999 7.84984 47.9999 7.35007C47.9999 6.85031 47.5947 6.44513 47.095 6.44513H37.1508C36.651 6.44513 36.2458 6.85031 36.2458 7.35007C36.2458 7.84984 36.651 8.25501 37.1508 8.25501ZM40.7826 4.07732C40.7826 4.57708 41.1878 4.98226 41.6875 4.98226H47.095C47.5947 4.98226 47.9999 4.57708 47.9999 4.07732C47.9999 3.95848 47.9765 3.8408 47.931 3.73101C47.8855 3.62122 47.8189 3.52146 47.7349 3.43743C47.6508 3.3534 47.5511 3.28674 47.4413 3.24126C47.3315 3.19578 47.2138 3.17238 47.095 3.17238H41.6875C41.1878 3.17228 40.7826 3.57746 40.7826 4.07732Z" fill="#7CA1B1"/>
<path d="M25.1406 23.4819L36.41 34.7513C39.294 31.8673 41.0779 27.8829 41.0779 23.4819H25.1406Z" fill="url(#paint3_linear_436_2282)"/>
<path d="M25.1406 23.4819L36.41 34.7513C39.294 31.8673 41.0779 27.8829 41.0779 23.4819H25.1406Z" fill="url(#paint4_linear_436_2282)"/>
<path d="M25.1406 6.2917V23.4821H42.331C42.8197 23.4821 43.2134 23.0749 43.1896 22.5868C42.7374 13.3191 35.3036 5.88539 26.036 5.43316C25.5479 5.40934 25.1406 5.80304 25.1406 6.2917Z" fill="url(#paint5_linear_436_2282)"/>
<path d="M32.079 6.79297L28.2793 10.5927L41.1688 23.4822H42.3299C42.8186 23.4822 43.2123 23.0749 43.1885 22.5869C42.8403 15.4522 38.3539 9.40511 32.079 6.79297Z" fill="url(#paint6_linear_436_2282)"/>
<path d="M25.1406 23.4821H42.331C42.8197 23.4821 43.2134 23.0748 43.1896 22.5867C43.0301 19.319 42.0018 16.2799 40.3321 13.6938H25.1406V23.4821Z" fill="url(#paint7_linear_436_2282)"/>
<path d="M31.1642 6.44078C29.5129 5.85717 27.7853 5.51772 26.036 5.43316C25.5479 5.40934 25.1406 5.80304 25.1406 6.2917V23.4821H31.1642V6.44078Z" fill="url(#paint8_linear_436_2282)"/>
<path d="M37.3498 39.7371C33.8651 42.3589 29.5105 43.8864 24.7966 43.8086C13.622 43.6243 4.65146 34.358 4.81269 23.183C4.96657 12.5132 13.3411 3.83249 23.886 3.1907C24.5653 3.14939 25.1399 3.68793 25.1399 4.36849V23.4821L37.6011 35.9433C38.6816 37.0237 38.5708 38.8184 37.3498 39.7371Z" fill="url(#paint9_linear_436_2282)"/>
<path d="M25.1399 23.4822V19.6986L16.3061 10.8647H9.19961C6.50935 14.2588 4.8797 18.5318 4.81269 23.1831C4.77278 25.9467 5.29222 28.5933 6.26464 31.015H32.6728L25.1399 23.4822Z" fill="url(#paint10_linear_436_2282)"/>
<path d="M24.7971 43.8085C29.5109 43.8863 33.8656 42.3588 37.3502 39.737C38.5712 38.8183 38.682 37.0237 37.6015 35.9432L25.1403 23.4819H4.8125C4.81419 34.5225 13.7223 43.6257 24.7971 43.8085Z" fill="url(#paint11_linear_436_2282)"/>
<path d="M15.7338 11.9698H5.7651C3.90684 11.9698 2.40039 10.4634 2.40039 8.60511V6.65217C2.40039 6.46496 2.47476 6.28542 2.60714 6.15304C2.73952 6.02066 2.91906 5.94629 3.10627 5.94629C3.29348 5.94629 3.47303 6.02066 3.60541 6.15304C3.73779 6.28542 3.81216 6.46496 3.81216 6.65217V8.60511C3.81216 9.6837 4.68651 10.5581 5.7651 10.5581H15.7338C15.921 10.5581 16.1005 10.6324 16.2329 10.7648C16.3653 10.8972 16.4396 11.0767 16.4396 11.2639C16.4396 11.4511 16.3653 11.6307 16.2329 11.7631C16.1005 11.8954 15.921 11.9698 15.7338 11.9698Z" fill="url(#paint12_linear_436_2282)"/>
<path d="M44.5009 41.8003C44.6881 41.8003 44.8676 41.7259 45 41.5936C45.1324 41.4612 45.2067 41.2816 45.2067 41.0944V36.2622C45.2067 35.0747 44.7441 33.9582 43.9044 33.1185L38.9629 28.177C38.8305 28.0446 38.6509 27.9702 38.4637 27.9702C38.2765 27.9702 38.097 28.0446 37.9646 28.177C37.8322 28.3094 37.7578 28.4889 37.7578 28.6761C37.7578 28.8633 37.8322 29.0429 37.9646 29.1753L42.9061 34.1168C43.4792 34.6899 43.7948 35.4519 43.7949 36.2623V41.0944C43.7949 41.1871 43.8131 41.2789 43.8486 41.3646C43.8841 41.4502 43.9361 41.5281 44.0017 41.5936C44.0672 41.6591 44.145 41.7111 44.2307 41.7466C44.3163 41.7821 44.4081 41.8003 44.5009 41.8003Z" fill="url(#paint13_linear_436_2282)"/>
<path d="M39.4818 4.05647C39.4818 3.86926 39.4075 3.68971 39.2751 3.55733C39.1427 3.42496 38.9632 3.35059 38.776 3.35059H36.3643C35.1767 3.35059 34.0603 3.81317 33.2206 4.65289L28.279 9.59445C28.1466 9.72683 28.0723 9.90638 28.0723 10.0936C28.0723 10.2808 28.1466 10.4604 28.279 10.5928C28.4114 10.7251 28.591 10.7995 28.7782 10.7995C28.9654 10.7995 29.1449 10.7251 29.2773 10.5928L34.2189 5.6512C34.792 5.07812 35.5539 4.76254 36.3644 4.76244H38.776C38.9632 4.76239 39.1427 4.688 39.2751 4.55561C39.4074 4.42322 39.4818 4.24368 39.4818 4.05647Z" fill="url(#paint14_linear_436_2282)"/>
</g>
<defs>
<linearGradient id="paint0_linear_436_2282" x1="4.81055" y1="35.6016" x2="7.64603" y2="35.6016" gradientUnits="userSpaceOnUse">
<stop stop-color="#FD8087"/>
<stop offset="1" stop-color="#FD3E2B"/>
</linearGradient>
<linearGradient id="paint1_linear_436_2282" x1="4.81055" y1="38.8018" x2="7.64603" y2="38.8018" gradientUnits="userSpaceOnUse">
<stop stop-color="#99E6FC"/>
<stop offset="1" stop-color="#01C0FA"/>
</linearGradient>
<linearGradient id="paint2_linear_436_2282" x1="4.81055" y1="42.0015" x2="7.64603" y2="42.0015" gradientUnits="userSpaceOnUse">
<stop stop-color="#FEE45A"/>
<stop offset="1" stop-color="#FEA613"/>
</linearGradient>
<linearGradient id="paint3_linear_436_2282" x1="25.1406" y1="23.4819" x2="41.0779" y2="23.4819" gradientUnits="userSpaceOnUse">
<stop stop-color="#FEE45A"/>
<stop offset="1" stop-color="#FEA613"/>
</linearGradient>
<linearGradient id="paint4_linear_436_2282" x1="33.1092" y1="28.1408" x2="33.1092" y2="23.7169" gradientUnits="userSpaceOnUse">
<stop stop-color="#DC8758" stop-opacity="0"/>
<stop offset="0.215" stop-color="#DD8654" stop-opacity="0.215"/>
<stop offset="0.429" stop-color="#E28448" stop-opacity="0.429"/>
<stop offset="0.642" stop-color="#EA8034" stop-opacity="0.642"/>
<stop offset="0.854" stop-color="#F47B18" stop-opacity="0.854"/>
<stop offset="1" stop-color="#FE7701"/>
</linearGradient>
<linearGradient id="paint5_linear_436_2282" x1="25.1406" y1="5.43213" x2="43.1906" y2="5.43213" gradientUnits="userSpaceOnUse">
<stop stop-color="#99E6FC"/>
<stop offset="1" stop-color="#01C0FA"/>
</linearGradient>
<linearGradient id="paint6_linear_436_2282" x1="28.2793" y1="6.79297" x2="43.1895" y2="6.79297" gradientUnits="userSpaceOnUse">
<stop stop-color="#017BAE" stop-opacity="0"/>
<stop offset="1" stop-color="#017BAE"/>
</linearGradient>
<linearGradient id="paint7_linear_436_2282" x1="25.1406" y1="13.6938" x2="43.1906" y2="13.6938" gradientUnits="userSpaceOnUse">
<stop stop-color="#017BAE" stop-opacity="0"/>
<stop offset="1" stop-color="#017BAE"/>
</linearGradient>
<linearGradient id="paint8_linear_436_2282" x1="25.1406" y1="5.43213" x2="31.1642" y2="5.43213" gradientUnits="userSpaceOnUse">
<stop stop-color="#017BAE" stop-opacity="0"/>
<stop offset="1" stop-color="#017BAE"/>
</linearGradient>
<linearGradient id="paint9_linear_436_2282" x1="4.81055" y1="3.18848" x2="38.3438" y2="3.18848" gradientUnits="userSpaceOnUse">
<stop stop-color="#FD8087"/>
<stop offset="1" stop-color="#FD3E2B"/>
</linearGradient>
<linearGradient id="paint10_linear_436_2282" x1="4.81055" y1="10.8647" x2="32.6728" y2="10.8647" gradientUnits="userSpaceOnUse">
<stop stop-color="#E41F2D" stop-opacity="0"/>
<stop offset="0.346" stop-color="#DE1E2B" stop-opacity="0.346"/>
<stop offset="0.804" stop-color="#CE1B28" stop-opacity="0.804"/>
<stop offset="1" stop-color="#C41926"/>
</linearGradient>
<linearGradient id="paint11_linear_436_2282" x1="4.8125" y1="23.4819" x2="38.3442" y2="23.4819" gradientUnits="userSpaceOnUse">
<stop stop-color="#E41F2D" stop-opacity="0"/>
<stop offset="0.346" stop-color="#DE1E2B" stop-opacity="0.346"/>
<stop offset="0.804" stop-color="#CE1B28" stop-opacity="0.804"/>
<stop offset="1" stop-color="#C41926"/>
</linearGradient>
<linearGradient id="paint12_linear_436_2282" x1="2.40039" y1="5.94629" x2="16.4396" y2="5.94629" gradientUnits="userSpaceOnUse">
<stop stop-color="#EAF9FA"/>
<stop offset="1" stop-color="#A8D3D8"/>
</linearGradient>
<linearGradient id="paint13_linear_436_2282" x1="37.7578" y1="27.9702" x2="45.2067" y2="27.9702" gradientUnits="userSpaceOnUse">
<stop stop-color="#EAF9FA"/>
<stop offset="1" stop-color="#A8D3D8"/>
</linearGradient>
<linearGradient id="paint14_linear_436_2282" x1="28.0723" y1="3.35059" x2="39.4818" y2="3.35059" gradientUnits="userSpaceOnUse">
<stop stop-color="#EAF9FA"/>
<stop offset="1" stop-color="#A8D3D8"/>
</linearGradient>
<clipPath id="clip0_436_2282">
<rect width="48" height="48" fill="white"/>
</clipPath>
</defs>
</svg>
