<svg width="48" height="48" viewBox="0 0 48 48" fill="none" xmlns="http://www.w3.org/2000/svg">
<g clip-path="url(#clip0_436_2185)">
<path d="M46.5938 18.4507H44.4577C43.9591 16.4576 43.1685 14.5492 42.1115 12.7875L43.6222 11.2767C44.1714 10.7276 44.1714 9.83721 43.6222 9.28803L38.3189 3.98468C37.7697 3.4355 36.8794 3.4355 36.3302 3.98468L34.8194 5.49546C33.0577 4.43839 31.1493 3.64777 29.1562 3.14928V1.01318C29.1562 0.236559 28.5266 -0.393066 27.75 -0.393066H20.25C19.4734 -0.393066 18.8438 0.236559 18.8438 1.01318V3.14928C16.8506 3.64773 14.9423 4.43835 13.1806 5.49546L11.6698 3.98468C11.1206 3.4355 10.2303 3.4355 9.68109 3.98468L4.37784 9.28803C3.82866 9.83721 3.82866 10.7276 4.37784 11.2767L5.88853 12.7875C4.83144 14.5492 4.04082 16.4576 3.54234 18.4507H1.40625C0.629625 18.4507 0 19.0803 0 19.8569V27.3569C0 28.1336 0.629625 28.7632 1.40625 28.7632H3.54234C4.04082 30.7563 4.83144 32.6647 5.88853 34.4263L4.37775 35.9371C3.82856 36.4863 3.82856 37.3767 4.37775 37.9258L9.68109 43.2291C10.2303 43.7783 11.1206 43.7783 11.6698 43.2291L13.1806 41.7183C14.9423 42.7753 16.8507 43.5659 18.8438 44.0644V46.2007C18.8438 46.9773 19.4734 47.6069 20.25 47.6069H27.75C28.5266 47.6069 29.1562 46.9773 29.1562 46.2007V44.0645C31.1493 43.566 33.0577 42.7754 34.8194 41.7184L36.3302 43.2291C36.8794 43.7783 37.7697 43.7783 38.3189 43.2291L43.6222 37.9258C44.1714 37.3767 44.1714 36.4863 43.6222 35.9371L42.1115 34.4263C43.1685 32.6647 43.9591 30.7563 44.4576 28.7632H46.5938C47.3704 28.7632 48 28.1336 48 27.3569V19.8569C48 19.0803 47.3704 18.4507 46.5938 18.4507Z" fill="#E2DFF4"/>
<path d="M46.5938 18.4507H44.4577C43.9591 16.4576 43.1685 14.5492 42.1115 12.7875L43.6222 11.2767C44.1714 10.7276 44.1714 9.83721 43.6222 9.28803L38.3189 3.98468C37.7697 3.4355 36.8794 3.4355 36.3302 3.98468L34.8194 5.49546C33.0577 4.43839 31.1493 3.64777 29.1562 3.14928V1.01318C29.1562 0.236559 28.5266 -0.393066 27.75 -0.393066H24V47.6069H27.75C28.5266 47.6069 29.1562 46.9773 29.1562 46.2007V44.0645C31.1493 43.566 33.0577 42.7754 34.8194 41.7184L36.3302 43.2291C36.8794 43.7783 37.7697 43.7783 38.3189 43.2291L43.6222 37.9258C44.1714 37.3767 44.1714 36.4863 43.6222 35.9371L42.1115 34.4263C43.1685 32.6647 43.9591 30.7563 44.4576 28.7632H46.5938C47.3704 28.7632 48 28.1336 48 27.3569V19.8569C48 19.0803 47.3704 18.4507 46.5938 18.4507Z" fill="#BEBCDD"/>
<path d="M24 36.7319C31.2487 36.7319 37.125 30.8557 37.125 23.6069C37.125 16.3582 31.2487 10.4819 24 10.4819C16.7513 10.4819 10.875 16.3582 10.875 23.6069C10.875 30.8557 16.7513 36.7319 24 36.7319Z" fill="#FFDD54"/>
<path d="M37.125 23.6069C37.125 16.3582 31.2487 10.4819 24 10.4819V36.7319C31.2487 36.7319 37.125 30.8557 37.125 23.6069Z" fill="#FFB454"/>
<path d="M24 38.1382C15.9874 38.1382 9.46875 31.6195 9.46875 23.6069C9.46875 15.5944 15.9874 9.07568 24 9.07568C32.0126 9.07568 38.5312 15.5944 38.5312 23.6069C38.5312 31.6195 32.0126 38.1382 24 38.1382ZM24 11.8882C17.5383 11.8882 12.2812 17.1452 12.2812 23.6069C12.2812 30.0687 17.5383 35.3257 24 35.3257C30.4617 35.3257 35.7188 30.0687 35.7188 23.6069C35.7188 17.1452 30.4617 11.8882 24 11.8882Z" fill="#FFF17D"/>
<path d="M35.7188 23.6069C35.7188 30.0687 30.4617 35.3257 24 35.3257V38.1382C32.0126 38.1382 38.5312 31.6195 38.5312 23.6069C38.5312 15.5944 32.0126 9.07568 24 9.07568V11.8882C30.4617 11.8882 35.7188 17.1452 35.7188 23.6069Z" fill="#FFDD54"/>
<path d="M25.8673 22.6475C25.5942 22.5512 25.3222 22.452 25.0512 22.3498V17.9182C25.7413 18.0645 26.0871 18.4187 26.1032 18.4358C26.4437 18.8243 27.0344 18.8641 27.424 18.5247C27.8145 18.1846 27.8553 17.5925 27.5152 17.202C27.4672 17.147 26.6324 16.2166 25.0513 16.0161V15.1694C25.0513 14.6517 24.6315 14.2319 24.1138 14.2319C23.5961 14.2319 23.1763 14.6517 23.1763 15.1694V16.1301C23.0406 16.1616 22.9029 16.1967 22.7608 16.2394C21.4283 16.6408 20.4325 17.7812 20.1622 19.2155C19.9156 20.5235 20.3349 21.785 21.2561 22.5076C21.7427 22.8893 22.348 23.2388 23.1762 23.6078V29.1678C22.4643 29.1141 21.968 28.9383 21.1579 28.4083C20.7246 28.1248 20.1435 28.2464 19.8601 28.6797C19.5767 29.113 19.698 29.694 20.1314 29.9774C21.3187 30.7541 22.1303 30.9868 23.1763 31.0466V32.0444C23.1763 32.5622 23.5961 32.9819 24.1138 32.9819C24.6315 32.9819 25.0513 32.5622 25.0513 32.0444V30.9718C27.1368 30.5598 28.3548 28.8387 28.6251 27.2311C28.9729 25.1618 27.8904 23.3626 25.8673 22.6475ZM22.4133 21.0324C22.0449 20.7433 21.8883 20.1803 22.0047 19.5628C22.1086 19.0118 22.4708 18.3499 23.1762 18.0785V21.5212C22.8893 21.3648 22.6297 21.2021 22.4133 21.0324ZM26.7759 26.9203C26.6336 27.7664 26.0476 28.6655 25.0512 29.026V24.3468C25.1149 24.3696 25.177 24.3921 25.2424 24.4152C26.9543 25.0204 26.8489 26.4856 26.7759 26.9203Z" fill="#FFF17D"/>
<path d="M25.8681 22.6475C25.595 22.5512 25.3229 22.452 25.052 22.3498V17.9182C25.7421 18.0645 26.0878 18.4187 26.1039 18.4358C26.4444 18.8243 27.0352 18.8641 27.4248 18.5247C27.8153 18.1846 27.856 17.5925 27.5159 17.202C27.4679 17.147 26.6332 16.2166 25.0521 16.0161V15.1694C25.0521 14.6517 24.6322 14.2319 24.1146 14.2319C24.0757 14.2319 24.0376 14.235 24 14.2396V32.9742C24.0376 32.9788 24.0757 32.9819 24.1146 32.9819C24.6322 32.9819 25.0521 32.5622 25.0521 32.0444V30.9718C27.1375 30.5598 28.3555 28.8387 28.6258 27.2311C28.9736 25.1618 27.8911 23.3626 25.8681 22.6475ZM26.7766 26.9203C26.6344 27.7664 26.0483 28.6655 25.052 29.026V24.3468C25.1156 24.3696 25.1777 24.3921 25.2431 24.4152C26.955 25.0204 26.8496 26.4856 26.7766 26.9203Z" fill="#FFDD54"/>
</g>
<defs>
<clipPath id="clip0_436_2185">
<rect width="48" height="48" fill="white"/>
</clipPath>
</defs>
</svg>
