<svg width="32" height="32" viewBox="0 0 32 32" fill="none" xmlns="http://www.w3.org/2000/svg">
<path d="M13.2944 7.4358L14.0974 9.6658C14.538 10.8883 15.2429 11.9986 16.1617 12.9175C17.0806 13.8363 18.1909 14.5412 19.4134 14.9818L21.6434 15.7848C21.6874 15.801 21.7254 15.8302 21.7523 15.8687C21.7792 15.9071 21.7936 15.9529 21.7936 15.9998C21.7936 16.0467 21.7792 16.0925 21.7523 16.1309C21.7254 16.1694 21.6874 16.1987 21.6434 16.2148L19.4134 17.0178C18.1909 17.4584 17.0806 18.1633 16.1617 19.0822C15.2429 20.001 14.538 21.1113 14.0974 22.3338L13.2944 24.5638C13.2782 24.6078 13.249 24.6459 13.2105 24.6727C13.1721 24.6996 13.1263 24.714 13.0794 24.714C13.0325 24.714 12.9867 24.6996 12.9483 24.6727C12.9098 24.6459 12.8805 24.6078 12.8644 24.5638L12.0614 22.3338C11.6208 21.1113 10.9159 20.001 9.99704 19.0822C9.07816 18.1633 7.9679 17.4584 6.74539 17.0178L4.51539 16.2148C4.47136 16.1987 4.43335 16.1694 4.40649 16.1309C4.37964 16.0925 4.36523 16.0467 4.36523 15.9998C4.36523 15.9529 4.37964 15.9071 4.40649 15.8687C4.43335 15.8302 4.47136 15.801 4.51539 15.7848L6.74539 14.9818C7.9679 14.5412 9.07816 13.8363 9.99704 12.9175C10.9159 11.9986 11.6208 10.8883 12.0614 9.6658L12.8644 7.4358C12.8801 7.39132 12.9092 7.35281 12.9477 7.32556C12.9862 7.29832 13.0322 7.28369 13.0794 7.28369C13.1266 7.28369 13.1726 7.29832 13.2111 7.32556C13.2496 7.35281 13.2787 7.39132 13.2944 7.4358ZM23.3324 2.0768L23.7394 3.2058C23.9627 3.82477 24.3197 4.38691 24.785 4.8522C25.2503 5.31749 25.8124 5.6745 26.4314 5.8978L27.5604 6.3048C27.5828 6.31295 27.6021 6.32777 27.6157 6.34727C27.6294 6.36677 27.6367 6.39 27.6367 6.4138C27.6367 6.43761 27.6294 6.46083 27.6157 6.48033C27.6021 6.49983 27.5828 6.51466 27.5604 6.5228L26.4314 6.9298C25.8124 7.15311 25.2503 7.51011 24.785 7.9754C24.3197 8.44069 23.9627 9.00283 23.7394 9.6218L23.3324 10.7508C23.3242 10.7732 23.3094 10.7925 23.2899 10.8061C23.2704 10.8198 23.2472 10.8271 23.2234 10.8271C23.1996 10.8271 23.1764 10.8198 23.1569 10.8061C23.1374 10.7925 23.1225 10.7732 23.1144 10.7508L22.7074 9.6218C22.4841 9.00283 22.1271 8.44069 21.6618 7.9754C21.1965 7.51011 20.6344 7.15311 20.0154 6.9298L18.8864 6.5228C18.864 6.51466 18.8447 6.49983 18.8311 6.48033C18.8174 6.46083 18.8101 6.43761 18.8101 6.4138C18.8101 6.39 18.8174 6.36677 18.8311 6.34727C18.8447 6.32777 18.864 6.31295 18.8864 6.3048L20.0154 5.8978C20.6344 5.6745 21.1965 5.31749 21.6618 4.8522C22.1271 4.38691 22.4841 3.82477 22.7074 3.2058L23.1144 2.0768C23.1225 2.05444 23.1374 2.03512 23.1569 2.02146C23.1764 2.00781 23.1996 2.00049 23.2234 2.00049C23.2472 2.00049 23.2704 2.00781 23.2899 2.02146C23.3094 2.03512 23.3242 2.05444 23.3324 2.0768ZM23.3324 21.2498L23.7394 22.3788C23.9627 22.9978 24.3197 23.5599 24.785 24.0252C25.2503 24.4905 25.8124 24.8475 26.4314 25.0708L27.5604 25.4778C27.5828 25.4859 27.6021 25.5008 27.6157 25.5203C27.6294 25.5398 27.6367 25.563 27.6367 25.5868C27.6367 25.6106 27.6294 25.6338 27.6157 25.6533C27.6021 25.6728 27.5828 25.6877 27.5604 25.6958L26.4314 26.1028C25.8124 26.3261 25.2503 26.6831 24.785 27.1484C24.3197 27.6137 23.9627 28.1758 23.7394 28.7948L23.3324 29.9238C23.3242 29.9462 23.3094 29.9655 23.2899 29.9791C23.2704 29.9928 23.2472 30.0001 23.2234 30.0001C23.1996 30.0001 23.1764 29.9928 23.1569 29.9791C23.1374 29.9655 23.1225 29.9462 23.1144 29.9238L22.7074 28.7948C22.4841 28.1758 22.1271 27.6137 21.6618 27.1484C21.1965 26.6831 20.6344 26.3261 20.0154 26.1028L18.8864 25.6958C18.864 25.6877 18.8447 25.6728 18.8311 25.6533C18.8174 25.6338 18.8101 25.6106 18.8101 25.5868C18.8101 25.563 18.8174 25.5398 18.8311 25.5203C18.8447 25.5008 18.864 25.4859 18.8864 25.4778L20.0154 25.0708C20.6344 24.8475 21.1965 24.4905 21.6618 24.0252C22.1271 23.5599 22.4841 22.9978 22.7074 22.3788L23.1144 21.2498C23.1514 21.1478 23.2964 21.1478 23.3324 21.2498Z" fill="#7661D3"/>
</svg>
