<svg width="24" height="24" viewBox="0 0 24 24" fill="none" xmlns="http://www.w3.org/2000/svg">
<g clip-path="url(#clip0_436_2109)">
<path d="M16.4725 0.975921L15.3925 5.19992H8.1775L7.441 3.45617C7.40001 3.33567 7.3884 3.20712 7.40715 3.08123C7.42591 2.95534 7.47447 2.83575 7.54881 2.73243C7.62314 2.62911 7.72109 2.54505 7.83449 2.48726C7.9479 2.42946 8.07347 2.3996 8.20075 2.40017H10.9532C11.0732 2.40017 11.185 2.37617 11.2885 2.33642V2.99192C11.2885 3.39992 11.5608 3.72842 11.8885 3.72842C12.2162 3.72842 12.4885 3.39992 12.4885 2.99192V0.0324205C12.5527 0.00941086 12.6206 -0.00152319 12.6887 0.00017055H15.6887C16.201 0.00017055 16.585 0.472671 16.4725 0.975921Z" fill="#8EBF04"/>
<path d="M16.0512 6.3999H7.95117C7.53696 6.3999 7.20117 6.73569 7.20117 7.1499V8.0499C7.20117 8.46412 7.53696 8.7999 7.95117 8.7999H16.0512C16.4654 8.7999 16.8012 8.46412 16.8012 8.0499V7.1499C16.8012 6.73569 16.4654 6.3999 16.0512 6.3999Z" fill="#8EBF04"/>
<path d="M21.6729 16.4007C21.1052 13.2964 18.5604 11.0247 16.8407 9.81641C16.5849 9.93641 16.2969 10.0002 16.0007 10.0002H8.00117C7.70492 10.0002 7.41617 9.93641 7.16117 9.81641C5.44067 11.0239 2.89667 13.2964 2.32892 16.4007C1.37642 21.6244 3.95267 24.0004 12.0009 24.0004C20.1369 24.0004 22.6247 21.6244 21.6729 16.4007ZM11.9132 16.1607L12.3767 16.2724C12.8004 16.3794 13.1762 16.6249 13.4444 16.9699C13.7127 17.3149 13.8579 17.7396 13.8572 18.1767V18.3762C13.8559 18.7636 13.7344 19.141 13.5093 19.4563C13.2843 19.7717 12.9669 20.0093 12.6009 20.1364V20.6644C12.6009 20.9922 12.3287 21.2644 12.0009 21.2644C11.6732 21.2644 11.4009 20.9922 11.4009 20.6644V20.1364C11.035 20.0093 10.7175 19.7717 10.4925 19.4563C10.2675 19.141 10.1459 18.7636 10.1447 18.3762C10.1447 18.0402 10.4087 17.7762 10.7447 17.7762C11.0732 17.7762 11.3447 18.0402 11.3447 18.3762C11.3447 18.7362 11.6409 19.0324 12.0009 19.0324C12.3609 19.0324 12.6572 18.7362 12.6572 18.3762V18.1767C12.6572 17.8242 12.4247 17.5287 12.0887 17.4402L11.6252 17.3284C11.2015 17.2214 10.8256 16.9759 10.5574 16.6309C10.2892 16.2859 10.1439 15.8612 10.1447 15.4242V15.2254C10.1447 14.4094 10.6727 13.7209 11.4009 13.4652V12.9372C11.4009 12.6094 11.6732 12.3372 12.0009 12.3372C12.3287 12.3372 12.6009 12.6094 12.6009 12.9372V13.4652C12.9669 13.5923 13.2843 13.8299 13.5093 14.1452C13.7344 14.4606 13.8559 14.838 13.8572 15.2254C13.8572 15.5614 13.5932 15.8254 13.2572 15.8254C13.1784 15.8255 13.1003 15.8101 13.0274 15.7799C12.9546 15.7498 12.8884 15.7056 12.8327 15.6499C12.777 15.5942 12.7328 15.528 12.7026 15.4551C12.6725 15.3823 12.6571 15.3042 12.6572 15.2254C12.6572 14.8654 12.3609 14.5692 12.0009 14.5692C11.6409 14.5692 11.3447 14.8654 11.3447 15.2254V15.4249C11.3447 15.7774 11.5772 16.0722 11.9132 16.1607Z" fill="#8EBF04"/>
</g>
<defs>
<clipPath id="clip0_436_2109">
<rect width="24" height="24" fill="white"/>
</clipPath>
</defs>
</svg>
