<svg width="24" height="24" viewBox="0 0 24 24" fill="none" xmlns="http://www.w3.org/2000/svg">
<path d="M11.9932 3.1635C6.7619 -1.412 0.110422 2.60816 0.00135253 8.05814C-0.0264422 9.44708 0.374496 10.8 1.17258 12.0473H6.34549L7.26558 10.5138C7.53275 10.0685 8.17929 10.0542 8.4616 10.4981L10.4029 13.5486L13.2326 7.5748C13.4794 7.05354 14.2149 7.037 14.4871 7.54246L16.9128 12.0473H22.8138C27.1851 5.21534 18.5459 -2.56771 11.9932 3.1635Z" fill="#E32424"/>
<path d="M15.8742 13.0835L13.9086 9.43311L11.129 15.3009C10.8926 15.8002 10.1971 15.8435 9.9005 15.3774L7.88643 12.2125L7.3468 13.1119C7.28434 13.216 7.19598 13.3022 7.09033 13.362C6.98468 13.4218 6.86535 13.4532 6.74394 13.4532H2.28516C2.42493 13.5995 1.68 12.8561 11.4976 22.6229C11.7718 22.8957 12.2151 22.8958 12.4893 22.6229C22.1559 13.0063 21.5623 13.5992 21.7018 13.4532H16.4932C16.3662 13.4532 16.2417 13.4189 16.1327 13.3538C16.0237 13.2887 15.9343 13.1953 15.8742 13.0835Z" fill="#E32424"/>
</svg>
