<svg width="196" height="94" viewBox="0 0 196 94" fill="none" xmlns="http://www.w3.org/2000/svg">
<g clip-path="url(#clip0_436_2035)">
<path d="M135.702 62.878C135.468 63.6123 135.258 64.2601 135.048 64.9297C133.996 68.2123 132.362 71.178 129.823 73.5807C128.599 74.7287 127.31 75.8101 125.726 76.4285C124.78 76.7996 123.77 77.1259 122.765 77.2131C119.747 77.5399 117.342 75.7489 116.664 72.7989C116.323 71.4 116.418 69.9887 116.775 68.6047C117.7 65.1672 119.824 62.7338 122.978 61.127C125.183 60.0218 127.532 59.3545 129.961 58.9716C130.727 58.8576 131.493 58.7435 132.325 58.6308C132.687 58.008 132.681 57.2903 132.761 56.5962C133.498 49.6974 132.153 43.1889 128.969 37.0323C126.56 32.371 123.332 28.2793 119.392 24.8246C106.63 13.6141 91.7881 6.86013 74.9306 4.56404C65.8166 3.32523 56.8171 3.87189 47.9702 6.46575C42.2623 8.14833 36.9073 10.6647 31.8451 13.7745C27.999 16.1275 24.3648 18.7677 21.0275 21.8057C11.5719 30.4096 5.63105 40.9371 3.57133 53.5916C2.79302 58.3586 2.45034 63.1567 2.58738 67.9651C2.69941 71.9032 3.27121 75.7641 4.2369 79.5683C4.67986 81.2955 5.14462 83.0233 6.592 84.7068C5.9207 84.475 5.55048 84.4453 5.29254 84.2658C4.5628 83.7066 4.01076 82.999 3.68002 82.1439C3.10251 80.5877 2.4814 79.0306 2.01384 77.4332C1.18172 74.5235 0.809822 71.5148 0.655976 68.5108C0.318168 61.8717 0.808019 55.2937 2.2777 48.8019C4.18128 40.3842 8.00596 32.9209 13.5147 26.2764C18.5079 20.2732 24.5431 15.5317 31.174 11.4987C34.2463 9.62928 37.4661 8.00217 40.7689 6.57252C51.1827 2.12046 62.0556 0.678919 73.2689 1.68C86.9856 2.93037 99.5845 7.48365 111.231 14.7563C116.225 17.8639 120.839 21.42 124.87 25.7246C131.631 32.9579 135.77 41.3963 136.561 51.3068C136.699 53.0275 136.618 54.7653 136.602 56.5045C136.59 57.0696 136.425 57.6532 136.349 58.1299C137.145 58.6905 137.802 58.5307 138.412 58.5655C146.76 58.9181 154.7 60.9798 162.191 64.6627C167.48 67.2548 172.341 70.49 176.46 74.753C176.951 75.2636 177.464 75.7747 177.866 76.3487C178.098 76.7016 178.241 77.1613 178.276 77.5969C178.327 78.272 177.595 78.8217 176.967 78.6126C176.555 78.4733 176.146 78.2471 175.758 78.0213C173.193 76.5531 170.741 74.9133 168.358 73.1445C159.316 66.4929 149.111 63.2303 137.927 62.8822C137.23 62.8672 136.531 62.874 135.702 62.878ZM131.047 63.3002C129.847 63.318 128.771 63.6429 127.673 63.9456C126.115 64.3906 124.641 64.9896 123.333 65.9401C121.648 67.2087 120.717 68.9065 120.824 71.0397C120.903 72.4765 121.632 73.0357 122.993 72.6517C123.893 72.3883 124.796 71.9728 125.572 71.424C128.229 69.5674 129.942 66.9948 131.01 63.9735C131.08 63.801 131.018 63.604 131.025 63.2997L131.047 63.3002Z" fill="#D3CCEE"/>
<path d="M189.513 75.4239C190.876 76.9752 192.062 78.6531 192.982 80.4776C193.38 81.2689 193.733 82.1244 193.954 82.9772C194.438 84.8575 193.922 86.5208 192.562 87.905C191.603 88.8847 190.453 89.5777 189.22 90.1166C186.512 91.2981 183.618 91.9754 180.766 92.7189C180.459 92.7993 180.131 92.814 179.804 92.807C179.172 92.7935 178.676 92.5002 178.404 91.9508C178.133 91.3797 178.211 90.7725 178.679 90.3476C179.235 89.8377 179.856 89.3509 180.518 88.9954C182.438 87.971 184.4 87.0128 186.341 86.0106C187.201 85.5724 188.062 85.1342 188.858 84.6294C189.632 84.1241 189.75 83.7135 189.464 82.8158C188.994 81.3272 188.105 80.0687 187.282 78.7682C186.776 77.9528 186.225 77.1583 185.719 76.3429C185.487 75.9683 185.278 75.5507 185.113 75.134C184.803 74.3228 184.971 73.6089 185.502 73.2289C186.034 72.8489 186.797 72.8652 187.485 73.3365C187.808 73.5609 188.086 73.8278 188.342 74.0942C188.747 74.516 189.108 74.9586 189.492 75.38L189.513 75.4239Z" fill="#D3CCEE"/>
</g>
<defs>
<clipPath id="clip0_436_2035">
<rect width="89" height="194" fill="white" transform="translate(0 88.9796) rotate(-88.7737)"/>
</clipPath>
</defs>
</svg>
