<svg width="222" height="50" viewBox="0 0 222 50" fill="none" xmlns="http://www.w3.org/2000/svg">
<g clip-path="url(#clip0_436_2968)">
<path d="M36.6474 42.4212C35.8208 43.5158 34.067 42.8476 34.1938 41.4804C34.5962 37.1724 33.8089 33.7655 33.2273 31.9367C33.1617 31.7301 33.096 31.5367 33.0348 31.3697C34.2857 28.9431 33.8702 24.2745 32.8905 22.0985C31.6615 19.3686 28.4644 18.1597 25.744 19.395C23.0279 20.6346 21.8252 23.8481 23.0542 26.578C24.0907 28.8727 27.6115 32.5126 30.3144 32.8819C30.7387 35.3656 31.2066 41.6695 26.8505 48.1535C25.9364 49.5119 24.2526 50.1449 22.678 49.7097C22.5075 49.6614 22.3413 49.613 22.1795 49.5691C21.4141 49.3537 20.6093 49.3537 19.8439 49.5647C18.5406 49.9251 17.2897 50.4219 13.8652 49.3844C8.48561 47.7535 -1.70058 36.9262 0.245685 24.147C1.45281 16.2211 5.14415 12.6955 8.6037 11.8339C10.1257 11.4558 11.3722 13.0691 10.6506 14.4715C6.70992 22.1337 7.81644 28.8903 8.22757 30.7103L8.09198 30.763C7.13416 31.1367 6.62682 32.1653 6.97671 33.0489L9.8633 40.4781C9.9639 40.7287 10.2613 40.8474 10.5368 40.7375L10.5981 40.7111C11.0136 40.5485 11.2279 40.1133 11.0792 39.7352L9.19414 34.8952C9.08042 34.6051 9.24662 34.271 9.5659 34.1435C9.8808 34.0204 10.2307 34.1523 10.3444 34.4468L12.2338 39.2956C12.4044 39.7352 12.9336 39.9418 13.4191 39.7484C13.8958 39.5594 14.1495 39.0494 13.9745 38.6055L12.0895 33.7567C11.9758 33.4665 12.142 33.1324 12.4569 33.005C12.7805 32.8819 13.126 33.0138 13.2397 33.3083L15.116 38.1439C15.2647 38.5263 15.7196 38.6978 16.1351 38.5351L16.1963 38.5131C16.4719 38.4032 16.6118 38.1131 16.5112 37.8581L13.6246 30.4377C13.2835 29.5497 12.2251 29.1409 11.2585 29.5189L11.0529 29.6025C10.9698 27.6814 11.1317 22.1249 15.1423 16.6299C15.982 15.4781 17.4516 14.955 18.8161 15.3595C20.1064 15.7419 20.968 15.7727 20.968 15.7727H21.0292C21.0292 15.7727 24.4712 15.6408 27.9352 12.8406C31.4078 10.0359 39.8096 11.3679 41.7515 24.147C42.8318 31.2641 40.1595 37.7702 36.6431 42.4212H36.6474Z" fill="#7661D3"/>
<path d="M27.9183 0.0134566C27.9183 0.0134566 23.6015 -0.426143 20.9598 3.9127C18.773 7.50862 21.0779 11.9178 21.0779 11.9178C21.0779 11.9178 26.0332 11.72 28.0363 8.01856C30.455 3.55223 27.9183 0.0134566 27.9183 0.0134566Z" fill="#7661D3"/>
<path d="M25.9353 20.5248C24.2296 21.5139 23.3505 23.1624 23.9497 25.4131C23.7573 22.8634 28.4064 19.7599 30.637 20.9863C29.7185 20.2698 27.9691 19.3466 25.9353 20.5248Z" fill="#7661D3"/>
</g>
<path d="M183.023 24.1701L188.347 16.1621L183.177 8.33008H186.851L190.217 13.6101L193.539 8.33008H197.235L192.065 16.1621L197.367 24.1701H193.693L190.217 18.7141L186.719 24.1701H183.023Z" fill="white"/>
<path d="M178.055 24.1701V8.33008H181.047V24.1701H178.055Z" fill="white"/>
<path d="M163.096 24.1701V8.33008H169.784C169.938 8.33008 170.143 8.33741 170.4 8.35208C170.664 8.35941 170.898 8.38141 171.104 8.41808C172.05 8.56474 172.823 8.87641 173.425 9.35308C174.033 9.82974 174.481 10.4311 174.767 11.1571C175.053 11.8757 175.196 12.6787 175.196 13.5661C175.196 14.8934 174.866 16.0301 174.206 16.9761C173.546 17.9147 172.512 18.4941 171.104 18.7141L169.784 18.8021H166.088V24.1701H163.096ZM172.028 24.1701L168.904 17.7241L171.984 17.1301L175.416 24.1701H172.028ZM166.088 16.0081H169.652C169.806 16.0081 169.974 16.0007 170.158 15.9861C170.341 15.9714 170.51 15.9421 170.664 15.8981C171.067 15.7881 171.379 15.6047 171.599 15.3481C171.819 15.0841 171.969 14.7944 172.05 14.4791C172.138 14.1564 172.182 13.8521 172.182 13.5661C172.182 13.2801 172.138 12.9794 172.05 12.6641C171.969 12.3414 171.819 12.0517 171.599 11.7951C171.379 11.5311 171.067 11.3441 170.664 11.2341C170.51 11.1901 170.341 11.1607 170.158 11.1461C169.974 11.1314 169.806 11.1241 169.652 11.1241H166.088V16.0081Z" fill="white"/>
<path d="M153.342 24.1701V11.1241H148.348V8.33008H161.328V11.1241H156.334V24.1701H153.342Z" fill="white"/>
<path d="M134.861 24.1701L139.701 8.33008H144.167L149.007 24.1701H145.927L141.615 10.2001H142.187L137.941 24.1701H134.861ZM137.765 20.8701V18.0761H146.125V20.8701H137.765Z" fill="white"/>
<path d="M117.033 24.1701V8.33008H119.717L124.953 18.8461L130.189 8.33008H132.873V24.1701H130.079V14.7101L125.481 24.1701H124.425L119.827 14.7101V24.1701H117.033Z" fill="white"/>
<path d="M97.0098 24.1701V8.33008H102.136C102.26 8.33008 102.517 8.33375 102.906 8.34108C103.294 8.34841 103.668 8.37408 104.028 8.41808C105.304 8.57208 106.385 9.01574 107.273 9.74908C108.16 10.4824 108.835 11.4137 109.297 12.5431C109.759 13.6724 109.99 14.9081 109.99 16.2501C109.99 17.5921 109.759 18.8277 109.297 19.9571C108.835 21.0864 108.16 22.0177 107.273 22.7511C106.385 23.4844 105.304 23.9281 104.028 24.0821C103.668 24.1261 103.294 24.1517 102.906 24.1591C102.517 24.1664 102.26 24.1701 102.136 24.1701H97.0098ZM100.046 21.3541H102.136C102.334 21.3541 102.601 21.3504 102.939 21.3431C103.276 21.3284 103.58 21.2954 103.852 21.2441C104.541 21.1047 105.102 20.7821 105.535 20.2761C105.975 19.7701 106.297 19.1614 106.503 18.4501C106.715 17.7387 106.822 17.0054 106.822 16.2501C106.822 15.4581 106.712 14.7064 106.492 13.9951C106.279 13.2837 105.953 12.6824 105.513 12.1911C105.073 11.6997 104.519 11.3881 103.852 11.2561C103.58 11.1974 103.276 11.1644 102.939 11.1571C102.601 11.1497 102.334 11.1461 102.136 11.1461H100.046V21.3541Z" fill="white"/>
<path d="M87.135 24.5C85.551 24.5 84.1834 24.1553 83.032 23.466C81.888 22.7767 81.0044 21.8123 80.381 20.573C79.765 19.3337 79.457 17.8927 79.457 16.25C79.457 14.6073 79.765 13.1663 80.381 11.927C81.0044 10.6877 81.888 9.72333 83.032 9.034C84.1834 8.34467 85.551 8 87.135 8C88.719 8 90.083 8.34467 91.227 9.034C92.3784 9.72333 93.262 10.6877 93.878 11.927C94.5014 13.1663 94.813 14.6073 94.813 16.25C94.813 17.8927 94.5014 19.3337 93.878 20.573C93.262 21.8123 92.3784 22.7767 91.227 23.466C90.083 24.1553 88.719 24.5 87.135 24.5ZM87.135 21.684C88.1397 21.6987 88.9757 21.4823 89.643 21.035C90.3104 20.5877 90.809 19.9533 91.139 19.132C91.4764 18.3107 91.645 17.35 91.645 16.25C91.645 15.15 91.4764 14.1967 91.139 13.39C90.809 12.5833 90.3104 11.9563 89.643 11.509C88.9757 11.0617 88.1397 10.8307 87.135 10.816C86.1304 10.8013 85.2944 11.0177 84.627 11.465C83.9597 11.9123 83.4574 12.5467 83.12 13.368C82.79 14.1893 82.625 15.15 82.625 16.25C82.625 17.35 82.79 18.3033 83.12 19.11C83.4574 19.9167 83.9597 20.5437 84.627 20.991C85.2944 21.4383 86.1304 21.6693 87.135 21.684Z" fill="white"/>
<path d="M70.4632 24.5C68.8792 24.5 67.5115 24.1553 66.3602 23.466C65.2162 22.7767 64.3325 21.8123 63.7092 20.573C63.0932 19.3337 62.7852 17.8927 62.7852 16.25C62.7852 14.6073 63.0932 13.1663 63.7092 11.927C64.3325 10.6877 65.2162 9.72333 66.3602 9.034C67.5115 8.34467 68.8792 8 70.4632 8C72.0472 8 73.4112 8.34467 74.5552 9.034C75.7065 9.72333 76.5902 10.6877 77.2062 11.927C77.8295 13.1663 78.1412 14.6073 78.1412 16.25C78.1412 17.8927 77.8295 19.3337 77.2062 20.573C76.5902 21.8123 75.7065 22.7767 74.5552 23.466C73.4112 24.1553 72.0472 24.5 70.4632 24.5ZM70.4632 21.684C71.4678 21.6987 72.3038 21.4823 72.9712 21.035C73.6385 20.5877 74.1372 19.9533 74.4672 19.132C74.8045 18.3107 74.9732 17.35 74.9732 16.25C74.9732 15.15 74.8045 14.1967 74.4672 13.39C74.1372 12.5833 73.6385 11.9563 72.9712 11.509C72.3038 11.0617 71.4678 10.8307 70.4632 10.816C69.4585 10.8013 68.6225 11.0177 67.9552 11.465C67.2878 11.9123 66.7855 12.5467 66.4482 13.368C66.1182 14.1893 65.9532 15.15 65.9532 16.25C65.9532 17.35 66.1182 18.3033 66.4482 19.11C66.7855 19.9167 67.2878 20.5437 67.9552 20.991C68.6225 21.4383 69.4585 21.6693 70.4632 21.684Z" fill="white"/>
<path d="M52 24.1701V8.33008H61.68V11.3221H54.992V14.7541H60.36V17.7461H54.992V24.1701H52Z" fill="white"/>
<path d="M55.52 42.665C54.9663 42.665 54.4677 42.5733 54.024 42.39C53.584 42.203 53.2192 41.939 52.9295 41.598C52.6435 41.257 52.4565 40.8518 52.3685 40.3825L53.1935 40.245C53.3255 40.7583 53.6042 41.1617 54.0295 41.455C54.4548 41.7447 54.9627 41.8895 55.553 41.8895C55.9417 41.8895 56.29 41.829 56.598 41.708C56.906 41.5833 57.148 41.4073 57.324 41.18C57.5 40.9527 57.588 40.6832 57.588 40.3715C57.588 40.1662 57.5513 39.992 57.478 39.849C57.4047 39.7023 57.3075 39.5813 57.1865 39.486C57.0655 39.3907 56.9335 39.3118 56.7905 39.2495C56.6475 39.1835 56.5082 39.1303 56.3725 39.09L54.365 38.4905C54.123 38.4208 53.8993 38.3328 53.694 38.2265C53.4887 38.1165 53.309 37.9863 53.155 37.836C53.0047 37.682 52.8873 37.5023 52.803 37.297C52.7187 37.0917 52.6765 36.857 52.6765 36.593C52.6765 36.1457 52.7938 35.7588 53.0285 35.4325C53.2632 35.1062 53.584 34.855 53.991 34.679C54.398 34.503 54.8618 34.4168 55.3825 34.4205C55.9105 34.4205 56.3817 34.514 56.796 34.701C57.214 34.888 57.5587 35.1557 57.83 35.504C58.1013 35.8487 58.281 36.2575 58.369 36.7305L57.522 36.8845C57.467 36.5398 57.3405 36.241 57.1425 35.988C56.9445 35.735 56.6915 35.5407 56.3835 35.405C56.0792 35.2657 55.7437 35.1942 55.377 35.1905C55.0213 35.1905 54.7042 35.251 54.4255 35.372C54.1505 35.4893 53.9323 35.6507 53.771 35.856C53.6097 36.0613 53.529 36.296 53.529 36.56C53.529 36.8277 53.6023 37.0422 53.749 37.2035C53.8993 37.3648 54.0827 37.4913 54.299 37.583C54.519 37.6747 54.7317 37.7498 54.937 37.8085L56.488 38.265C56.6493 38.309 56.8382 38.3732 57.0545 38.4575C57.2745 38.5382 57.4872 38.6555 57.6925 38.8095C57.9015 38.9598 58.0738 39.1578 58.2095 39.4035C58.3452 39.6492 58.413 39.9608 58.413 40.3385C58.413 40.7052 58.3397 41.0333 58.193 41.323C58.05 41.6127 57.8465 41.8565 57.5825 42.0545C57.3222 42.2525 57.016 42.4028 56.664 42.5055C56.3157 42.6118 55.9343 42.665 55.52 42.665ZM66.6323 42.5L66.6378 38.6005C66.6378 38.1422 66.5095 37.7828 66.2528 37.5225C65.9998 37.2585 65.6772 37.1265 65.2848 37.1265C65.0612 37.1265 64.843 37.1778 64.6303 37.2805C64.4177 37.3832 64.2417 37.5482 64.1023 37.7755C63.9667 38.0028 63.8988 38.2998 63.8988 38.6665L63.4203 38.529C63.4093 38.1037 63.4918 37.7315 63.6678 37.4125C63.8475 37.0935 64.0932 36.846 64.4048 36.67C64.7202 36.4903 65.0758 36.4005 65.4718 36.4005C66.0695 36.4005 66.548 36.5857 66.9073 36.956C67.2667 37.3227 67.4463 37.8195 67.4463 38.4465L67.4408 42.5H66.6323ZM59.5428 42.5V36.56H60.2688V38.023H60.3568V42.5H59.5428ZM63.0958 42.5L63.1013 38.6555C63.1013 38.1825 62.9748 37.8103 62.7218 37.539C62.4725 37.264 62.1425 37.1265 61.7318 37.1265C61.3212 37.1265 60.9893 37.2677 60.7363 37.55C60.4833 37.8287 60.3568 38.2008 60.3568 38.6665L59.8728 38.4025C59.8728 38.0212 59.9627 37.6802 60.1423 37.3795C60.322 37.0752 60.5677 36.8368 60.8793 36.6645C61.191 36.4885 61.5448 36.4005 61.9408 36.4005C62.3185 36.4005 62.654 36.4812 62.9473 36.6425C63.2443 36.8038 63.4772 37.0385 63.6458 37.3465C63.8145 37.6545 63.8988 38.0285 63.8988 38.4685L63.8933 42.5H63.0958ZM70.572 42.665C70.1247 42.665 69.7489 42.5843 69.4445 42.423C69.1439 42.2617 68.9184 42.0472 68.768 41.7795C68.6177 41.5118 68.5425 41.2203 68.5425 40.905C68.5425 40.5823 68.6067 40.3073 68.735 40.08C68.867 39.849 69.0449 39.6602 69.2685 39.5135C69.4959 39.3668 69.758 39.255 70.055 39.178C70.3557 39.1047 70.6875 39.0405 71.0505 38.9855C71.4172 38.9268 71.7747 38.8773 72.123 38.837C72.475 38.793 72.783 38.7508 73.047 38.7105L72.761 38.8865C72.772 38.2998 72.6584 37.8653 72.42 37.583C72.1817 37.3007 71.7674 37.1595 71.177 37.1595C70.77 37.1595 70.4254 37.2512 70.143 37.4345C69.8644 37.6178 69.6682 37.9075 69.5545 38.3035L68.768 38.0725C68.9037 37.5408 69.1769 37.1283 69.5875 36.835C69.9982 36.5417 70.5317 36.395 71.188 36.395C71.7307 36.395 72.1909 36.4977 72.5685 36.703C72.9499 36.9047 73.2194 37.198 73.377 37.583C73.4504 37.7553 73.498 37.9478 73.52 38.1605C73.542 38.3732 73.553 38.5895 73.553 38.8095V42.5H72.8325V41.0095L73.0415 41.0975C72.8399 41.6072 72.5264 41.9958 72.101 42.2635C71.6757 42.5312 71.166 42.665 70.572 42.665ZM70.6655 41.9665C71.0432 41.9665 71.3732 41.8987 71.6555 41.763C71.9379 41.6273 72.1652 41.4422 72.3375 41.2075C72.5099 40.9692 72.6217 40.7015 72.673 40.4045C72.717 40.2138 72.7409 40.0048 72.7445 39.7775C72.7482 39.5465 72.75 39.3742 72.75 39.2605L73.058 39.42C72.783 39.4567 72.4842 39.4933 72.1615 39.53C71.8425 39.5667 71.5272 39.6088 71.2155 39.6565C70.9075 39.7042 70.6289 39.761 70.3795 39.827C70.2109 39.8747 70.0477 39.9425 69.89 40.0305C69.7324 40.1148 69.6022 40.2285 69.4995 40.3715C69.4005 40.5145 69.351 40.6923 69.351 40.905C69.351 41.0773 69.3932 41.2442 69.4775 41.4055C69.5655 41.5668 69.7049 41.7007 69.8955 41.807C70.0899 41.9133 70.3465 41.9665 70.6655 41.9665ZM74.9848 42.5V36.56H75.7108V37.99L75.5678 37.803C75.6338 37.627 75.72 37.4657 75.8263 37.319C75.9327 37.1687 76.0482 37.0458 76.1728 36.9505C76.3268 36.8148 76.5065 36.7122 76.7118 36.6425C76.9172 36.5692 77.1243 36.527 77.3333 36.516C77.5423 36.5013 77.733 36.516 77.9053 36.56V37.319C77.689 37.264 77.4525 37.2512 77.1958 37.2805C76.9392 37.3098 76.7027 37.4125 76.4863 37.5885C76.2883 37.7425 76.1398 37.9277 76.0408 38.144C75.9418 38.3567 75.8758 38.584 75.8428 38.826C75.8098 39.0643 75.7933 39.3008 75.7933 39.5355V42.5H74.9848ZM82.1827 42.5C81.849 42.5697 81.519 42.5972 81.1927 42.5825C80.87 42.5678 80.5804 42.4982 80.3237 42.3735C80.0707 42.2488 79.8782 42.0545 79.7462 41.7905C79.6399 41.5705 79.5812 41.3487 79.5702 41.125C79.5629 40.8977 79.5592 40.6392 79.5592 40.3495V34.91H80.3622V40.3165C80.3622 40.5658 80.364 40.7748 80.3677 40.9435C80.375 41.1085 80.4135 41.2552 80.4832 41.3835C80.6152 41.6292 80.8242 41.7758 81.1102 41.8235C81.3999 41.8712 81.7574 41.8602 82.1827 41.7905V42.5ZM78.2887 37.253V36.56H82.1827V37.253H78.2887ZM85.5552 42.5V34.58H90.1037V35.3885H86.3637V38.1385H89.4437V38.9415H86.3637V42.5H85.5552ZM93.4175 42.665C92.8272 42.665 92.323 42.5312 91.905 42.2635C91.487 41.9958 91.1662 41.6255 90.9425 41.1525C90.7188 40.6795 90.607 40.1368 90.607 39.5245C90.607 38.9012 90.7207 38.3548 90.948 37.8855C91.1753 37.4162 91.498 37.0513 91.916 36.791C92.3377 36.527 92.8382 36.395 93.4175 36.395C94.0115 36.395 94.5175 36.5288 94.9355 36.7965C95.3572 37.0605 95.678 37.429 95.898 37.902C96.1217 38.3713 96.2335 38.9122 96.2335 39.5245C96.2335 40.1478 96.1217 40.696 95.898 41.169C95.6743 41.6383 95.3517 42.005 94.93 42.269C94.5083 42.533 94.0042 42.665 93.4175 42.665ZM93.4175 41.8895C94.0775 41.8895 94.5688 41.6713 94.8915 41.235C95.2142 40.795 95.3755 40.2248 95.3755 39.5245C95.3755 38.8058 95.2123 38.2338 94.886 37.8085C94.5633 37.3832 94.0738 37.1705 93.4175 37.1705C92.9738 37.1705 92.6072 37.2713 92.3175 37.473C92.0315 37.671 91.817 37.9478 91.674 38.3035C91.5347 38.6555 91.465 39.0625 91.465 39.5245C91.465 40.2395 91.63 40.8133 91.96 41.246C92.29 41.675 92.7758 41.8895 93.4175 41.8895ZM99.9273 42.665C99.3369 42.665 98.8328 42.5312 98.4148 42.2635C97.9968 41.9958 97.6759 41.6255 97.4523 41.1525C97.2286 40.6795 97.1168 40.1368 97.1168 39.5245C97.1168 38.9012 97.2304 38.3548 97.4578 37.8855C97.6851 37.4162 98.0078 37.0513 98.4258 36.791C98.8474 36.527 99.3479 36.395 99.9273 36.395C100.521 36.395 101.027 36.5288 101.445 36.7965C101.867 37.0605 102.188 37.429 102.408 37.902C102.631 38.3713 102.743 38.9122 102.743 39.5245C102.743 40.1478 102.631 40.696 102.408 41.169C102.184 41.6383 101.861 42.005 101.44 42.269C101.018 42.533 100.514 42.665 99.9273 42.665ZM99.9273 41.8895C100.587 41.8895 101.079 41.6713 101.401 41.235C101.724 40.795 101.885 40.2248 101.885 39.5245C101.885 38.8058 101.722 38.2338 101.396 37.8085C101.073 37.3832 100.584 37.1705 99.9273 37.1705C99.4836 37.1705 99.1169 37.2713 98.8273 37.473C98.5413 37.671 98.3268 37.9478 98.1838 38.3035C98.0444 38.6555 97.9748 39.0625 97.9748 39.5245C97.9748 40.2395 98.1398 40.8133 98.4698 41.246C98.7998 41.675 99.2856 41.8895 99.9273 41.8895ZM106.261 42.665C105.707 42.665 105.234 42.5275 104.842 42.2525C104.45 41.9738 104.149 41.598 103.94 41.125C103.731 40.652 103.627 40.1185 103.627 39.5245C103.627 38.9342 103.729 38.4025 103.935 37.9295C104.144 37.4565 104.442 37.0825 104.831 36.8075C105.22 36.5325 105.685 36.395 106.228 36.395C106.785 36.395 107.255 36.5307 107.636 36.802C108.017 37.0733 108.305 37.4455 108.5 37.9185C108.698 38.3878 108.797 38.9232 108.797 39.5245C108.797 40.1148 108.699 40.6483 108.505 41.125C108.311 41.598 108.025 41.9738 107.647 42.2525C107.269 42.5275 106.807 42.665 106.261 42.665ZM106.344 41.9115C106.765 41.9115 107.114 41.8088 107.389 41.6035C107.664 41.3982 107.869 41.1158 108.005 40.7565C108.14 40.3935 108.208 39.9828 108.208 39.5245C108.208 39.0588 108.14 38.6482 108.005 38.2925C107.869 37.9332 107.664 37.6527 107.389 37.451C107.117 37.2493 106.774 37.1485 106.36 37.1485C105.935 37.1485 105.583 37.253 105.304 37.462C105.025 37.671 104.818 37.9552 104.683 38.3145C104.551 38.6738 104.485 39.0772 104.485 39.5245C104.485 39.9755 104.552 40.3825 104.688 40.7455C104.827 41.1048 105.035 41.389 105.31 41.598C105.585 41.807 105.929 41.9115 106.344 41.9115ZM108.208 42.5V38.0285H108.12V34.58H108.934V42.5H108.208ZM112.679 42.5V34.58H115.737C116.181 34.58 116.568 34.6717 116.898 34.855C117.228 35.0383 117.484 35.2858 117.668 35.5975C117.851 35.9055 117.943 36.2465 117.943 36.6205C117.943 37.0458 117.829 37.4253 117.602 37.759C117.374 38.089 117.07 38.3182 116.689 38.4465L116.678 38.177C117.191 38.3237 117.594 38.5803 117.888 38.947C118.181 39.3137 118.328 39.7573 118.328 40.278C118.328 40.7363 118.231 41.1323 118.036 41.466C117.842 41.796 117.569 42.0508 117.217 42.2305C116.865 42.4102 116.456 42.5 115.99 42.5H112.679ZM113.493 41.7245H115.792C116.115 41.7245 116.405 41.6677 116.661 41.554C116.918 41.4367 117.12 41.2717 117.266 41.059C117.417 40.8463 117.492 40.5897 117.492 40.289C117.492 39.9957 117.424 39.7317 117.288 39.497C117.153 39.2623 116.967 39.0753 116.733 38.936C116.502 38.793 116.238 38.7215 115.941 38.7215H113.493V41.7245ZM113.493 37.957H115.732C115.985 37.957 116.216 37.9002 116.425 37.7865C116.634 37.6692 116.799 37.5097 116.92 37.308C117.044 37.1063 117.107 36.8735 117.107 36.6095C117.107 36.2355 116.977 35.9312 116.716 35.6965C116.46 35.4618 116.131 35.3445 115.732 35.3445H113.493V37.957ZM121.697 42.6485C121.341 42.6485 121.029 42.5935 120.762 42.4835C120.498 42.3735 120.272 42.225 120.085 42.038C119.902 41.851 119.753 41.6383 119.64 41.4C119.526 41.158 119.444 40.9032 119.392 40.6355C119.341 40.3642 119.315 40.0947 119.315 39.827V36.56H120.129V39.5905C120.129 39.9168 120.16 40.2193 120.223 40.498C120.285 40.7767 120.384 41.0205 120.52 41.2295C120.659 41.4348 120.837 41.5943 121.053 41.708C121.273 41.8217 121.539 41.8785 121.851 41.8785C122.137 41.8785 122.388 41.829 122.604 41.73C122.824 41.631 123.008 41.4898 123.154 41.3065C123.305 41.1195 123.418 40.894 123.495 40.63C123.572 40.3623 123.611 40.0617 123.611 39.728L124.183 39.8545C124.183 40.4632 124.076 40.9747 123.864 41.389C123.651 41.8033 123.358 42.1168 122.984 42.3295C122.61 42.5422 122.181 42.6485 121.697 42.6485ZM123.693 42.5V41.037H123.611V36.56H124.419V42.5H123.693ZM128.261 42.665C127.707 42.665 127.234 42.5275 126.842 42.2525C126.45 41.9738 126.149 41.598 125.94 41.125C125.731 40.652 125.627 40.1185 125.627 39.5245C125.627 38.9342 125.729 38.4025 125.935 37.9295C126.144 37.4565 126.442 37.0825 126.831 36.8075C127.22 36.5325 127.685 36.395 128.228 36.395C128.785 36.395 129.255 36.5307 129.636 36.802C130.017 37.0733 130.305 37.4455 130.5 37.9185C130.698 38.3878 130.797 38.9232 130.797 39.5245C130.797 40.1148 130.699 40.6483 130.505 41.125C130.311 41.598 130.025 41.9738 129.647 42.2525C129.269 42.5275 128.807 42.665 128.261 42.665ZM128.344 41.9115C128.765 41.9115 129.114 41.8088 129.389 41.6035C129.664 41.3982 129.869 41.1158 130.005 40.7565C130.14 40.3935 130.208 39.9828 130.208 39.5245C130.208 39.0588 130.14 38.6482 130.005 38.2925C129.869 37.9332 129.664 37.6527 129.389 37.451C129.117 37.2493 128.774 37.1485 128.36 37.1485C127.935 37.1485 127.583 37.253 127.304 37.462C127.025 37.671 126.818 37.9552 126.683 38.3145C126.551 38.6738 126.485 39.0772 126.485 39.5245C126.485 39.9755 126.552 40.3825 126.688 40.7455C126.827 41.1048 127.035 41.389 127.31 41.598C127.585 41.807 127.929 41.9115 128.344 41.9115ZM130.208 42.5V38.0285H130.12V34.58H130.934V42.5H130.208ZM134.837 45.305C134.532 45.305 134.232 45.2592 133.935 45.1675C133.641 45.0795 133.37 44.9383 133.121 44.744C132.871 44.5533 132.662 44.304 132.494 43.996L133.225 43.589C133.39 43.919 133.621 44.1555 133.918 44.2985C134.219 44.4452 134.525 44.5185 134.837 44.5185C135.266 44.5185 135.612 44.4378 135.876 44.2765C136.144 44.1188 136.338 43.8842 136.459 43.5725C136.58 43.2608 136.639 42.8722 136.635 42.4065V40.8225H136.729V36.56H137.449V42.4175C137.449 42.5862 137.444 42.7475 137.433 42.9015C137.425 43.0592 137.409 43.2132 137.383 43.3635C137.313 43.8072 137.169 44.172 136.949 44.458C136.732 44.744 136.446 44.9567 136.091 45.096C135.739 45.2353 135.321 45.305 134.837 45.305ZM134.782 42.665C134.228 42.665 133.755 42.5275 133.363 42.2525C132.97 41.9738 132.67 41.598 132.461 41.125C132.252 40.652 132.147 40.1185 132.147 39.5245C132.147 38.9342 132.25 38.4025 132.455 37.9295C132.664 37.4565 132.963 37.0825 133.352 36.8075C133.74 36.5325 134.206 36.395 134.749 36.395C135.306 36.395 135.775 36.5307 136.157 36.802C136.538 37.0733 136.826 37.4455 137.02 37.9185C137.218 38.3878 137.317 38.9232 137.317 39.5245C137.317 40.1148 137.22 40.6483 137.026 41.125C136.831 41.598 136.545 41.9738 136.168 42.2525C135.79 42.5275 135.328 42.665 134.782 42.665ZM134.864 41.9115C135.286 41.9115 135.634 41.8088 135.909 41.6035C136.184 41.3982 136.389 41.1158 136.525 40.7565C136.661 40.3935 136.729 39.9828 136.729 39.5245C136.729 39.0588 136.661 38.6482 136.525 38.2925C136.389 37.9332 136.184 37.6527 135.909 37.451C135.638 37.2493 135.295 37.1485 134.881 37.1485C134.455 37.1485 134.103 37.253 133.825 37.462C133.546 37.671 133.339 37.9552 133.203 38.3145C133.071 38.6738 133.005 39.0772 133.005 39.5245C133.005 39.9755 133.073 40.3825 133.209 40.7455C133.348 41.1048 133.555 41.389 133.83 41.598C134.105 41.807 134.45 41.9115 134.864 41.9115ZM141.5 42.665C140.921 42.665 140.419 42.5367 139.993 42.28C139.572 42.0233 139.243 41.6622 139.009 41.1965C138.774 40.7308 138.657 40.1845 138.657 39.5575C138.657 38.9085 138.772 38.3475 139.003 37.8745C139.234 37.4015 139.559 37.0367 139.977 36.78C140.398 36.5233 140.895 36.395 141.467 36.395C142.054 36.395 142.554 36.5307 142.969 36.802C143.383 37.0697 143.697 37.4547 143.909 37.957C144.122 38.4593 144.219 39.0588 144.201 39.7555H143.376V39.4695C143.361 38.6995 143.194 38.1183 142.875 37.726C142.56 37.3337 142.098 37.1375 141.489 37.1375C140.851 37.1375 140.362 37.3447 140.021 37.759C139.683 38.1733 139.515 38.7637 139.515 39.53C139.515 40.278 139.683 40.8592 140.021 41.2735C140.362 41.6842 140.844 41.8895 141.467 41.8895C141.893 41.8895 142.263 41.7923 142.578 41.598C142.897 41.4 143.148 41.1158 143.332 40.7455L144.085 41.037C143.851 41.554 143.504 41.9555 143.046 42.2415C142.591 42.5238 142.076 42.665 141.5 42.665ZM139.229 39.7555V39.079H143.766V39.7555H139.229ZM148.655 42.5C148.322 42.5697 147.992 42.5972 147.665 42.5825C147.343 42.5678 147.053 42.4982 146.796 42.3735C146.543 42.2488 146.351 42.0545 146.219 41.7905C146.113 41.5705 146.054 41.3487 146.043 41.125C146.036 40.8977 146.032 40.6392 146.032 40.3495V34.91H146.835V40.3165C146.835 40.5658 146.837 40.7748 146.84 40.9435C146.848 41.1085 146.886 41.2552 146.956 41.3835C147.088 41.6292 147.297 41.7758 147.583 41.8235C147.873 41.8712 148.23 41.8602 148.655 41.7905V42.5ZM144.761 37.253V36.56H148.655V37.253H144.761ZM152.028 42.5V34.58H152.77L155.883 41.2405L158.98 34.58H159.733V42.4945H158.963V36.384L156.142 42.5H155.619L152.803 36.384V42.5H152.028ZM162.976 42.665C162.529 42.665 162.153 42.5843 161.849 42.423C161.548 42.2617 161.323 42.0472 161.172 41.7795C161.022 41.5118 160.947 41.2203 160.947 40.905C160.947 40.5823 161.011 40.3073 161.139 40.08C161.271 39.849 161.449 39.6602 161.673 39.5135C161.9 39.3668 162.162 39.255 162.459 39.178C162.76 39.1047 163.092 39.0405 163.455 38.9855C163.822 38.9268 164.179 38.8773 164.527 38.837C164.879 38.793 165.187 38.7508 165.451 38.7105L165.165 38.8865C165.176 38.2998 165.063 37.8653 164.824 37.583C164.586 37.3007 164.172 37.1595 163.581 37.1595C163.174 37.1595 162.83 37.2512 162.547 37.4345C162.269 37.6178 162.073 37.9075 161.959 38.3035L161.172 38.0725C161.308 37.5408 161.581 37.1283 161.992 36.835C162.403 36.5417 162.936 36.395 163.592 36.395C164.135 36.395 164.595 36.4977 164.973 36.703C165.354 36.9047 165.624 37.198 165.781 37.583C165.855 37.7553 165.902 37.9478 165.924 38.1605C165.946 38.3732 165.957 38.5895 165.957 38.8095V42.5H165.237V41.0095L165.446 41.0975C165.244 41.6072 164.931 41.9958 164.505 42.2635C164.08 42.5312 163.57 42.665 162.976 42.665ZM163.07 41.9665C163.448 41.9665 163.778 41.8987 164.06 41.763C164.342 41.6273 164.57 41.4422 164.742 41.2075C164.914 40.9692 165.026 40.7015 165.077 40.4045C165.121 40.2138 165.145 40.0048 165.149 39.7775C165.153 39.5465 165.154 39.3742 165.154 39.2605L165.462 39.42C165.187 39.4567 164.889 39.4933 164.566 39.53C164.247 39.5667 163.932 39.6088 163.62 39.6565C163.312 39.7042 163.033 39.761 162.784 39.827C162.615 39.8747 162.452 39.9425 162.294 40.0305C162.137 40.1148 162.007 40.2285 161.904 40.3715C161.805 40.5145 161.755 40.6923 161.755 40.905C161.755 41.0773 161.798 41.2442 161.882 41.4055C161.97 41.5668 162.109 41.7007 162.3 41.807C162.494 41.9133 162.751 41.9665 163.07 41.9665ZM171.679 42.5V39.4695C171.679 39.1395 171.648 38.837 171.586 38.562C171.523 38.2833 171.422 38.0413 171.283 37.836C171.147 37.627 170.97 37.4657 170.75 37.352C170.533 37.2383 170.269 37.1815 169.958 37.1815C169.672 37.1815 169.419 37.231 169.199 37.33C168.982 37.429 168.799 37.572 168.649 37.759C168.502 37.9423 168.39 38.166 168.313 38.43C168.236 38.694 168.198 38.9947 168.198 39.332L167.626 39.2055C167.626 38.5968 167.732 38.0853 167.945 37.671C168.157 37.2567 168.451 36.9432 168.825 36.7305C169.199 36.5178 169.628 36.4115 170.112 36.4115C170.467 36.4115 170.777 36.4665 171.041 36.5765C171.309 36.6865 171.534 36.835 171.718 37.022C171.905 37.209 172.055 37.4235 172.169 37.6655C172.282 37.9038 172.365 38.1587 172.416 38.43C172.467 38.6977 172.493 38.9653 172.493 39.233V42.5H171.679ZM167.384 42.5V36.56H168.115V38.023H168.198V42.5H167.384ZM175.62 42.665C175.173 42.665 174.797 42.5843 174.492 42.423C174.192 42.2617 173.966 42.0472 173.816 41.7795C173.666 41.5118 173.59 41.2203 173.59 40.905C173.59 40.5823 173.655 40.3073 173.783 40.08C173.915 39.849 174.093 39.6602 174.316 39.5135C174.544 39.3668 174.806 39.255 175.103 39.178C175.404 39.1047 175.735 39.0405 176.098 38.9855C176.465 38.9268 176.823 38.8773 177.171 38.837C177.523 38.793 177.831 38.7508 178.095 38.7105L177.809 38.8865C177.82 38.2998 177.706 37.8653 177.468 37.583C177.23 37.3007 176.815 37.1595 176.225 37.1595C175.818 37.1595 175.473 37.2512 175.191 37.4345C174.912 37.6178 174.716 37.9075 174.602 38.3035L173.816 38.0725C173.952 37.5408 174.225 37.1283 174.635 36.835C175.046 36.5417 175.58 36.395 176.236 36.395C176.779 36.395 177.239 36.4977 177.616 36.703C177.998 36.9047 178.267 37.198 178.425 37.583C178.498 37.7553 178.546 37.9478 178.568 38.1605C178.59 38.3732 178.601 38.5895 178.601 38.8095V42.5H177.88V41.0095L178.089 41.0975C177.888 41.6072 177.574 41.9958 177.149 42.2635C176.724 42.5312 176.214 42.665 175.62 42.665ZM175.713 41.9665C176.091 41.9665 176.421 41.8987 176.703 41.763C176.986 41.6273 177.213 41.4422 177.385 41.2075C177.558 40.9692 177.67 40.7015 177.721 40.4045C177.765 40.2138 177.789 40.0048 177.792 39.7775C177.796 39.5465 177.798 39.3742 177.798 39.2605L178.106 39.42C177.831 39.4567 177.532 39.4933 177.209 39.53C176.89 39.5667 176.575 39.6088 176.263 39.6565C175.955 39.7042 175.677 39.761 175.427 39.827C175.259 39.8747 175.096 39.9425 174.938 40.0305C174.78 40.1148 174.65 40.2285 174.547 40.3715C174.448 40.5145 174.399 40.6923 174.399 40.905C174.399 41.0773 174.441 41.2442 174.525 41.4055C174.613 41.5668 174.753 41.7007 174.943 41.807C175.138 41.9133 175.394 41.9665 175.713 41.9665ZM182.392 45.305C182.088 45.305 181.787 45.2592 181.49 45.1675C181.197 45.0795 180.926 44.9383 180.676 44.744C180.427 44.5533 180.218 44.304 180.049 43.996L180.781 43.589C180.946 43.919 181.177 44.1555 181.474 44.2985C181.774 44.4452 182.081 44.5185 182.392 44.5185C182.821 44.5185 183.168 44.4378 183.432 44.2765C183.699 44.1188 183.894 43.8842 184.015 43.5725C184.136 43.2608 184.194 42.8722 184.191 42.4065V40.8225H184.284V36.56H185.005V42.4175C185.005 42.5862 184.999 42.7475 184.988 42.9015C184.981 43.0592 184.964 43.2132 184.939 43.3635C184.869 43.8072 184.724 44.172 184.504 44.458C184.288 44.744 184.002 44.9567 183.646 45.096C183.294 45.2353 182.876 45.305 182.392 45.305ZM182.337 42.665C181.784 42.665 181.311 42.5275 180.918 42.2525C180.526 41.9738 180.225 41.598 180.016 41.125C179.807 40.652 179.703 40.1185 179.703 39.5245C179.703 38.9342 179.805 38.4025 180.011 37.9295C180.22 37.4565 180.519 37.0825 180.907 36.8075C181.296 36.5325 181.762 36.395 182.304 36.395C182.862 36.395 183.331 36.5307 183.712 36.802C184.094 37.0733 184.381 37.4455 184.576 37.9185C184.774 38.3878 184.873 38.9232 184.873 39.5245C184.873 40.1148 184.776 40.6483 184.581 41.125C184.387 41.598 184.101 41.9738 183.723 42.2525C183.346 42.5275 182.884 42.665 182.337 42.665ZM182.42 41.9115C182.841 41.9115 183.19 41.8088 183.465 41.6035C183.74 41.3982 183.945 41.1158 184.081 40.7565C184.216 40.3935 184.284 39.9828 184.284 39.5245C184.284 39.0588 184.216 38.6482 184.081 38.2925C183.945 37.9332 183.74 37.6527 183.465 37.451C183.193 37.2493 182.851 37.1485 182.436 37.1485C182.011 37.1485 181.659 37.253 181.38 37.462C181.102 37.671 180.894 37.9552 180.759 38.3145C180.627 38.6738 180.561 39.0772 180.561 39.5245C180.561 39.9755 180.629 40.3825 180.764 40.7455C180.904 41.1048 181.111 41.389 181.386 41.598C181.661 41.807 182.005 41.9115 182.42 41.9115ZM189.056 42.665C188.477 42.665 187.974 42.5367 187.549 42.28C187.127 42.0233 186.799 41.6622 186.564 41.1965C186.33 40.7308 186.212 40.1845 186.212 39.5575C186.212 38.9085 186.328 38.3475 186.559 37.8745C186.79 37.4015 187.114 37.0367 187.532 36.78C187.954 36.5233 188.451 36.395 189.023 36.395C189.61 36.395 190.11 36.5307 190.524 36.802C190.939 37.0697 191.252 37.4547 191.465 37.957C191.678 38.4593 191.775 39.0588 191.756 39.7555H190.931V39.4695C190.917 38.6995 190.75 38.1183 190.431 37.726C190.116 37.3337 189.654 37.1375 189.045 37.1375C188.407 37.1375 187.917 37.3447 187.576 37.759C187.239 38.1733 187.07 38.7637 187.07 39.53C187.07 40.278 187.239 40.8592 187.576 41.2735C187.917 41.6842 188.4 41.8895 189.023 41.8895C189.448 41.8895 189.819 41.7923 190.134 41.598C190.453 41.4 190.704 41.1158 190.887 40.7455L191.641 41.037C191.406 41.554 191.06 41.9555 190.601 42.2415C190.147 42.5238 189.632 42.665 189.056 42.665ZM186.784 39.7555V39.079H191.322V39.7555H186.784ZM192.977 42.5V36.56H193.703V37.99L193.56 37.803C193.626 37.627 193.712 37.4657 193.819 37.319C193.925 37.1687 194.04 37.0458 194.165 36.9505C194.319 36.8148 194.499 36.7122 194.704 36.6425C194.909 36.5692 195.117 36.527 195.326 36.516C195.535 36.5013 195.725 36.516 195.898 36.56V37.319C195.681 37.264 195.445 37.2512 195.188 37.2805C194.931 37.3098 194.695 37.4125 194.479 37.5885C194.281 37.7425 194.132 37.9277 194.033 38.144C193.934 38.3567 193.868 38.584 193.835 38.826C193.802 39.0643 193.786 39.3008 193.786 39.5355V42.5H192.977Z" fill="white"/>
<defs>
<clipPath id="clip0_436_2968">
<rect width="42" height="50" fill="white"/>
</clipPath>
</defs>
</svg>
