<svg width="191" height="47" viewBox="0 0 191 47" fill="none" xmlns="http://www.w3.org/2000/svg">
<g clip-path="url(#clip0_9_2084)">
<path d="M31.4114 36.4823C30.7029 37.4237 29.1996 36.849 29.3083 35.6733C29.6532 31.9684 28.9784 29.0384 28.4798 27.4657C28.4236 27.288 28.3673 27.1217 28.3149 26.978C29.387 24.8912 29.0309 20.8762 28.1911 19.0048C27.1377 16.6571 24.3973 15.6175 22.0656 16.6798C19.7375 17.7459 18.7066 20.5095 19.76 22.8572C20.6485 24.8307 23.6663 27.961 25.9831 28.2785C26.3467 30.4145 26.7478 35.8359 23.014 41.4122C22.2305 42.5804 20.7872 43.1248 19.4376 42.7505C19.2914 42.7089 19.149 42.6673 19.0103 42.6295C18.3542 42.4443 17.6644 42.4443 17.0084 42.6257C15.8912 42.9357 14.8191 43.3629 11.8837 42.4707C7.27268 41.0681 -1.45834 31.7566 0.20989 20.7666C1.24457 13.9502 4.40858 10.9182 7.3739 10.1773C8.67849 9.85212 9.74691 11.2396 9.12835 12.4456C5.75066 19.0351 6.69911 24.8458 7.0515 26.4109L6.93529 26.4563C6.11429 26.7777 5.67943 27.6623 5.97934 28.4222L8.45356 34.8113C8.53979 35.0268 8.79471 35.1289 9.03088 35.0344L9.08337 35.0117C9.43951 34.8718 9.6232 34.4975 9.49574 34.1724L7.87999 30.01C7.78252 29.7605 7.92498 29.4732 8.19864 29.3636C8.46856 29.2577 8.76847 29.3711 8.86593 29.6244L10.4854 33.7944C10.6316 34.1724 11.0852 34.3501 11.5014 34.1838C11.91 34.0212 12.1274 33.5826 11.9775 33.2008L10.3617 29.0309C10.2642 28.7813 10.4067 28.494 10.6766 28.3844C10.954 28.2785 11.2502 28.392 11.3477 28.6452L12.9559 32.8039C13.0834 33.1328 13.4732 33.2802 13.8294 33.1403L13.8819 33.1214C14.118 33.0269 14.238 32.7774 14.1518 32.5581L11.6776 26.1765C11.3851 25.4129 10.4779 25.0613 9.64944 25.3864L9.47325 25.4582C9.40202 23.8061 9.54072 19.0275 12.9784 14.3018C13.6982 13.3113 14.9578 12.8614 16.1274 13.2093C17.2333 13.5382 17.9718 13.5646 17.9718 13.5646H18.0243C18.0243 13.5646 20.9746 13.4512 23.9437 11.043C26.9203 8.63101 34.1218 9.77651 35.7863 20.7666C36.7122 26.8873 34.4217 32.4825 31.4076 36.4823H31.4114Z" fill="#7661D3"/>
<path d="M23.9287 0.0113432C23.9287 0.0113432 20.2286 -0.366712 17.9644 3.36469C16.0899 6.45718 18.0656 10.2491 18.0656 10.2491C18.0656 10.2491 22.313 10.079 24.03 6.89573C26.1031 3.05469 23.9287 0.0113432 23.9287 0.0113432Z" fill="#7661D3"/>
<path d="M22.2306 17.6514C20.7685 18.502 20.015 19.9197 20.5286 21.8554C20.3637 19.6626 24.3487 16.9936 26.2606 18.0483C25.4733 17.4321 23.9738 16.6382 22.2306 17.6514Z" fill="#7661D3"/>
</g>
<path d="M176.024 22.92L181.348 14.912L176.178 7.07996H179.852L183.218 12.36L186.54 7.07996H190.236L185.066 14.912L190.368 22.92H186.694L183.218 17.464L179.72 22.92H176.024Z" fill="black"/>
<path d="M171.054 22.92V7.07996H174.046V22.92H171.054Z" fill="black"/>
<path d="M156.096 22.92V7.07996H162.784C162.938 7.07996 163.143 7.08729 163.4 7.10196C163.664 7.10929 163.898 7.13129 164.104 7.16796C165.05 7.31462 165.823 7.62629 166.425 8.10296C167.033 8.57962 167.481 9.18096 167.767 9.90696C168.053 10.6256 168.196 11.4286 168.196 12.316C168.196 13.6433 167.866 14.78 167.206 15.726C166.546 16.6646 165.512 17.244 164.104 17.464L162.784 17.552H159.088V22.92H156.096ZM165.028 22.92L161.904 16.474L164.984 15.88L168.416 22.92H165.028ZM159.088 14.758H162.652C162.806 14.758 162.974 14.7506 163.158 14.736C163.341 14.7213 163.51 14.692 163.664 14.648C164.067 14.538 164.379 14.3546 164.599 14.098C164.819 13.834 164.969 13.5443 165.05 13.229C165.138 12.9063 165.182 12.602 165.182 12.316C165.182 12.03 165.138 11.7293 165.05 11.414C164.969 11.0913 164.819 10.8016 164.599 10.545C164.379 10.281 164.067 10.094 163.664 9.98396C163.51 9.93996 163.341 9.91062 163.158 9.89596C162.974 9.88129 162.806 9.87396 162.652 9.87396H159.088V14.758Z" fill="black"/>
<path d="M146.342 22.92V9.87396H141.348V7.07996H154.328V9.87396H149.334V22.92H146.342Z" fill="black"/>
<path d="M127.861 22.92L132.701 7.07996H137.167L142.007 22.92H138.927L134.615 8.94996H135.187L130.941 22.92H127.861ZM130.765 19.62V16.826H139.125V19.62H130.765Z" fill="black"/>
<path d="M110.033 22.92V7.07996H112.717L117.953 17.596L123.189 7.07996H125.873V22.92H123.079V13.46L118.481 22.92H117.425L112.827 13.46V22.92H110.033Z" fill="black"/>
<path d="M90.0098 22.92V7.07996H95.1358C95.2604 7.07996 95.5171 7.08362 95.9058 7.09096C96.2944 7.09829 96.6684 7.12396 97.0278 7.16796C98.3038 7.32196 99.3854 7.76562 100.273 8.49896C101.16 9.23229 101.835 10.1636 102.297 11.293C102.759 12.4223 102.99 13.658 102.99 15C102.99 16.342 102.759 17.5776 102.297 18.707C101.835 19.8363 101.16 20.7676 100.273 21.501C99.3854 22.2343 98.3038 22.678 97.0278 22.832C96.6684 22.876 96.2944 22.9016 95.9058 22.909C95.5171 22.9163 95.2604 22.92 95.1358 22.92H90.0098ZM93.0458 20.104H95.1358C95.3338 20.104 95.6014 20.1003 95.9388 20.093C96.2761 20.0783 96.5804 20.0453 96.8518 19.994C97.5411 19.8546 98.1021 19.532 98.5348 19.026C98.9748 18.52 99.2974 17.9113 99.5028 17.2C99.7154 16.4886 99.8218 15.7553 99.8218 15C99.8218 14.208 99.7118 13.4563 99.4918 12.745C99.2791 12.0336 98.9528 11.4323 98.5128 10.941C98.0728 10.4496 97.5191 10.138 96.8518 10.006C96.5804 9.94729 96.2761 9.91429 95.9388 9.90696C95.6014 9.89962 95.3338 9.89596 95.1358 9.89596H93.0458V20.104Z" fill="black"/>
<path d="M80.1359 23.25C78.5519 23.25 77.1842 22.9053 76.0329 22.216C74.8889 21.5267 74.0052 20.5623 73.3819 19.323C72.7659 18.0837 72.4579 16.6427 72.4579 15C72.4579 13.3573 72.7659 11.9163 73.3819 10.677C74.0052 9.43767 74.8889 8.47333 76.0329 7.784C77.1842 7.09467 78.5519 6.75 80.1359 6.75C81.7199 6.75 83.0839 7.09467 84.2279 7.784C85.3792 8.47333 86.2629 9.43767 86.8789 10.677C87.5022 11.9163 87.8139 13.3573 87.8139 15C87.8139 16.6427 87.5022 18.0837 86.8789 19.323C86.2629 20.5623 85.3792 21.5267 84.2279 22.216C83.0839 22.9053 81.7199 23.25 80.1359 23.25ZM80.1359 20.434C81.1406 20.4487 81.9766 20.2323 82.6439 19.785C83.3112 19.3377 83.8099 18.7033 84.1399 17.882C84.4772 17.0607 84.6459 16.1 84.6459 15C84.6459 13.9 84.4772 12.9467 84.1399 12.14C83.8099 11.3333 83.3112 10.7063 82.6439 10.259C81.9766 9.81167 81.1406 9.58067 80.1359 9.566C79.1312 9.55133 78.2952 9.76767 77.6279 10.215C76.9606 10.6623 76.4582 11.2967 76.1209 12.118C75.7909 12.9393 75.6259 13.9 75.6259 15C75.6259 16.1 75.7909 17.0533 76.1209 17.86C76.4582 18.6667 76.9606 19.2937 77.6279 19.741C78.2952 20.1883 79.1312 20.4193 80.1359 20.434Z" fill="black"/>
<path d="M63.464 23.25C61.88 23.25 60.5123 22.9053 59.361 22.216C58.217 21.5267 57.3333 20.5623 56.71 19.323C56.094 18.0837 55.786 16.6427 55.786 15C55.786 13.3573 56.094 11.9163 56.71 10.677C57.3333 9.43767 58.217 8.47333 59.361 7.784C60.5123 7.09467 61.88 6.75 63.464 6.75C65.048 6.75 66.412 7.09467 67.556 7.784C68.7073 8.47333 69.591 9.43767 70.207 10.677C70.8303 11.9163 71.142 13.3573 71.142 15C71.142 16.6427 70.8303 18.0837 70.207 19.323C69.591 20.5623 68.7073 21.5267 67.556 22.216C66.412 22.9053 65.048 23.25 63.464 23.25ZM63.464 20.434C64.4687 20.4487 65.3047 20.2323 65.972 19.785C66.6393 19.3377 67.138 18.7033 67.468 17.882C67.8053 17.0607 67.974 16.1 67.974 15C67.974 13.9 67.8053 12.9467 67.468 12.14C67.138 11.3333 66.6393 10.7063 65.972 10.259C65.3047 9.81167 64.4687 9.58067 63.464 9.566C62.4593 9.55133 61.6233 9.76767 60.956 10.215C60.2887 10.6623 59.7863 11.2967 59.449 12.118C59.119 12.9393 58.954 13.9 58.954 15C58.954 16.1 59.119 17.0533 59.449 17.86C59.7863 18.6667 60.2887 19.2937 60.956 19.741C61.6233 20.1883 62.4593 20.4193 63.464 20.434Z" fill="black"/>
<path d="M45 22.92V7.07996H54.68V10.072H47.992V13.504H53.36V16.496H47.992V22.92H45Z" fill="black"/>
<path d="M48.52 41.415C47.9663 41.415 47.4677 41.3233 47.024 41.14C46.584 40.953 46.2192 40.689 45.9295 40.348C45.6435 40.007 45.4565 39.6018 45.3685 39.1325L46.1935 38.995C46.3255 39.5083 46.6042 39.9117 47.0295 40.205C47.4548 40.4947 47.9627 40.6395 48.553 40.6395C48.9417 40.6395 49.29 40.579 49.598 40.458C49.906 40.3333 50.148 40.1573 50.324 39.93C50.5 39.7027 50.588 39.4332 50.588 39.1215C50.588 38.9162 50.5513 38.742 50.478 38.599C50.4047 38.4523 50.3075 38.3313 50.1865 38.236C50.0655 38.1407 49.9335 38.0618 49.7905 37.9995C49.6475 37.9335 49.5082 37.8803 49.3725 37.84L47.365 37.2405C47.123 37.1708 46.8993 37.0828 46.694 36.9765C46.4887 36.8665 46.309 36.7363 46.155 36.586C46.0047 36.432 45.8873 36.2523 45.803 36.047C45.7187 35.8417 45.6765 35.607 45.6765 35.343C45.6765 34.8957 45.7938 34.5088 46.0285 34.1825C46.2632 33.8562 46.584 33.605 46.991 33.429C47.398 33.253 47.8618 33.1668 48.3825 33.1705C48.9105 33.1705 49.3817 33.264 49.796 33.451C50.214 33.638 50.5587 33.9057 50.83 34.254C51.1013 34.5987 51.281 35.0075 51.369 35.4805L50.522 35.6345C50.467 35.2898 50.3405 34.991 50.1425 34.738C49.9445 34.485 49.6915 34.2907 49.3835 34.155C49.0792 34.0157 48.7437 33.9442 48.377 33.9405C48.0213 33.9405 47.7042 34.001 47.4255 34.122C47.1505 34.2393 46.9323 34.4007 46.771 34.606C46.6097 34.8113 46.529 35.046 46.529 35.31C46.529 35.5777 46.6023 35.7922 46.749 35.9535C46.8993 36.1148 47.0827 36.2413 47.299 36.333C47.519 36.4247 47.7317 36.4998 47.937 36.5585L49.488 37.015C49.6493 37.059 49.8382 37.1232 50.0545 37.2075C50.2745 37.2882 50.4872 37.4055 50.6925 37.5595C50.9015 37.7098 51.0738 37.9078 51.2095 38.1535C51.3452 38.3992 51.413 38.7108 51.413 39.0885C51.413 39.4552 51.3397 39.7833 51.193 40.073C51.05 40.3627 50.8465 40.6065 50.5825 40.8045C50.3222 41.0025 50.016 41.1528 49.664 41.2555C49.3157 41.3618 48.9343 41.415 48.52 41.415ZM59.6323 41.25L59.6378 37.3505C59.6378 36.8922 59.5095 36.5328 59.2528 36.2725C58.9998 36.0085 58.6772 35.8765 58.2848 35.8765C58.0612 35.8765 57.843 35.9278 57.6303 36.0305C57.4177 36.1332 57.2417 36.2982 57.1023 36.5255C56.9667 36.7528 56.8988 37.0498 56.8988 37.4165L56.4203 37.279C56.4093 36.8537 56.4918 36.4815 56.6678 36.1625C56.8475 35.8435 57.0932 35.596 57.4048 35.42C57.7202 35.2403 58.0758 35.1505 58.4718 35.1505C59.0695 35.1505 59.548 35.3357 59.9073 35.706C60.2667 36.0727 60.4463 36.5695 60.4463 37.1965L60.4408 41.25H59.6323ZM52.5428 41.25V35.31H53.2688V36.773H53.3568V41.25H52.5428ZM56.0958 41.25L56.1013 37.4055C56.1013 36.9325 55.9748 36.5603 55.7218 36.289C55.4725 36.014 55.1425 35.8765 54.7318 35.8765C54.3212 35.8765 53.9893 36.0177 53.7363 36.3C53.4833 36.5787 53.3568 36.9508 53.3568 37.4165L52.8728 37.1525C52.8728 36.7712 52.9627 36.4302 53.1423 36.1295C53.322 35.8252 53.5677 35.5868 53.8793 35.4145C54.191 35.2385 54.5448 35.1505 54.9408 35.1505C55.3185 35.1505 55.654 35.2312 55.9473 35.3925C56.2443 35.5538 56.4772 35.7885 56.6458 36.0965C56.8145 36.4045 56.8988 36.7785 56.8988 37.2185L56.8933 41.25H56.0958ZM63.572 41.415C63.1247 41.415 62.7489 41.3343 62.4445 41.173C62.1439 41.0117 61.9184 40.7972 61.768 40.5295C61.6177 40.2618 61.5425 39.9703 61.5425 39.655C61.5425 39.3323 61.6067 39.0573 61.735 38.83C61.867 38.599 62.0449 38.4102 62.2685 38.2635C62.4959 38.1168 62.758 38.005 63.055 37.928C63.3557 37.8547 63.6875 37.7905 64.0505 37.7355C64.4172 37.6768 64.7747 37.6273 65.123 37.587C65.475 37.543 65.783 37.5008 66.047 37.4605L65.761 37.6365C65.772 37.0498 65.6584 36.6153 65.42 36.333C65.1817 36.0507 64.7674 35.9095 64.177 35.9095C63.77 35.9095 63.4254 36.0012 63.143 36.1845C62.8644 36.3678 62.6682 36.6575 62.5545 37.0535L61.768 36.8225C61.9037 36.2908 62.1769 35.8783 62.5875 35.585C62.9982 35.2917 63.5317 35.145 64.188 35.145C64.7307 35.145 65.1909 35.2477 65.5685 35.453C65.9499 35.6547 66.2194 35.948 66.377 36.333C66.4504 36.5053 66.498 36.6978 66.52 36.9105C66.542 37.1232 66.553 37.3395 66.553 37.5595V41.25H65.8325V39.7595L66.0415 39.8475C65.8399 40.3572 65.5264 40.7458 65.101 41.0135C64.6757 41.2812 64.166 41.415 63.572 41.415ZM63.6655 40.7165C64.0432 40.7165 64.3732 40.6487 64.6555 40.513C64.9379 40.3773 65.1652 40.1922 65.3375 39.9575C65.5099 39.7192 65.6217 39.4515 65.673 39.1545C65.717 38.9638 65.7409 38.7548 65.7445 38.5275C65.7482 38.2965 65.75 38.1242 65.75 38.0105L66.058 38.17C65.783 38.2067 65.4842 38.2433 65.1615 38.28C64.8425 38.3167 64.5272 38.3588 64.2155 38.4065C63.9075 38.4542 63.6289 38.511 63.3795 38.577C63.2109 38.6247 63.0477 38.6925 62.89 38.7805C62.7324 38.8648 62.6022 38.9785 62.4995 39.1215C62.4005 39.2645 62.351 39.4423 62.351 39.655C62.351 39.8273 62.3932 39.9942 62.4775 40.1555C62.5655 40.3168 62.7049 40.4507 62.8955 40.557C63.0899 40.6633 63.3465 40.7165 63.6655 40.7165ZM67.9848 41.25V35.31H68.7108V36.74L68.5678 36.553C68.6338 36.377 68.72 36.2157 68.8263 36.069C68.9327 35.9187 69.0482 35.7958 69.1728 35.7005C69.3268 35.5648 69.5065 35.4622 69.7118 35.3925C69.9172 35.3192 70.1243 35.277 70.3333 35.266C70.5423 35.2513 70.733 35.266 70.9053 35.31V36.069C70.689 36.014 70.4525 36.0012 70.1958 36.0305C69.9392 36.0598 69.7027 36.1625 69.4863 36.3385C69.2883 36.4925 69.1398 36.6777 69.0408 36.894C68.9418 37.1067 68.8758 37.334 68.8428 37.576C68.8098 37.8143 68.7933 38.0508 68.7933 38.2855V41.25H67.9848ZM75.1827 41.25C74.849 41.3197 74.519 41.3472 74.1927 41.3325C73.87 41.3178 73.5804 41.2482 73.3237 41.1235C73.0707 40.9988 72.8782 40.8045 72.7462 40.5405C72.6399 40.3205 72.5812 40.0987 72.5702 39.875C72.5629 39.6477 72.5592 39.3892 72.5592 39.0995V33.66H73.3622V39.0665C73.3622 39.3158 73.364 39.5248 73.3677 39.6935C73.375 39.8585 73.4135 40.0052 73.4832 40.1335C73.6152 40.3792 73.8242 40.5258 74.1102 40.5735C74.3999 40.6212 74.7574 40.6102 75.1827 40.5405V41.25ZM71.2887 36.003V35.31H75.1827V36.003H71.2887ZM78.5552 41.25V33.33H83.1037V34.1385H79.3637V36.8885H82.4437V37.6915H79.3637V41.25H78.5552ZM86.4175 41.415C85.8272 41.415 85.323 41.2812 84.905 41.0135C84.487 40.7458 84.1662 40.3755 83.9425 39.9025C83.7188 39.4295 83.607 38.8868 83.607 38.2745C83.607 37.6512 83.7207 37.1048 83.948 36.6355C84.1753 36.1662 84.498 35.8013 84.916 35.541C85.3377 35.277 85.8382 35.145 86.4175 35.145C87.0115 35.145 87.5175 35.2788 87.9355 35.5465C88.3572 35.8105 88.678 36.179 88.898 36.652C89.1217 37.1213 89.2335 37.6622 89.2335 38.2745C89.2335 38.8978 89.1217 39.446 88.898 39.919C88.6743 40.3883 88.3517 40.755 87.93 41.019C87.5083 41.283 87.0042 41.415 86.4175 41.415ZM86.4175 40.6395C87.0775 40.6395 87.5688 40.4213 87.8915 39.985C88.2142 39.545 88.3755 38.9748 88.3755 38.2745C88.3755 37.5558 88.2123 36.9838 87.886 36.5585C87.5633 36.1332 87.0738 35.9205 86.4175 35.9205C85.9738 35.9205 85.6072 36.0213 85.3175 36.223C85.0315 36.421 84.817 36.6978 84.674 37.0535C84.5347 37.4055 84.465 37.8125 84.465 38.2745C84.465 38.9895 84.63 39.5633 84.96 39.996C85.29 40.425 85.7758 40.6395 86.4175 40.6395ZM92.9273 41.415C92.3369 41.415 91.8328 41.2812 91.4148 41.0135C90.9968 40.7458 90.6759 40.3755 90.4523 39.9025C90.2286 39.4295 90.1168 38.8868 90.1168 38.2745C90.1168 37.6512 90.2304 37.1048 90.4578 36.6355C90.6851 36.1662 91.0078 35.8013 91.4258 35.541C91.8474 35.277 92.3479 35.145 92.9273 35.145C93.5213 35.145 94.0273 35.2788 94.4453 35.5465C94.8669 35.8105 95.1878 36.179 95.4078 36.652C95.6314 37.1213 95.7433 37.6622 95.7433 38.2745C95.7433 38.8978 95.6314 39.446 95.4078 39.919C95.1841 40.3883 94.8614 40.755 94.4398 41.019C94.0181 41.283 93.5139 41.415 92.9273 41.415ZM92.9273 40.6395C93.5873 40.6395 94.0786 40.4213 94.4013 39.985C94.7239 39.545 94.8853 38.9748 94.8853 38.2745C94.8853 37.5558 94.7221 36.9838 94.3958 36.5585C94.0731 36.1332 93.5836 35.9205 92.9273 35.9205C92.4836 35.9205 92.1169 36.0213 91.8273 36.223C91.5413 36.421 91.3268 36.6978 91.1838 37.0535C91.0444 37.4055 90.9748 37.8125 90.9748 38.2745C90.9748 38.9895 91.1398 39.5633 91.4698 39.996C91.7998 40.425 92.2856 40.6395 92.9273 40.6395ZM99.261 41.415C98.7074 41.415 98.2344 41.2775 97.842 41.0025C97.4497 40.7238 97.149 40.348 96.94 39.875C96.731 39.402 96.6265 38.8685 96.6265 38.2745C96.6265 37.6842 96.7292 37.1525 96.9345 36.6795C97.1435 36.2065 97.4424 35.8325 97.831 35.5575C98.2197 35.2825 98.6854 35.145 99.228 35.145C99.7854 35.145 100.255 35.2807 100.636 35.552C101.017 35.8233 101.305 36.1955 101.5 36.6685C101.698 37.1378 101.797 37.6732 101.797 38.2745C101.797 38.8648 101.699 39.3983 101.505 39.875C101.311 40.348 101.025 40.7238 100.647 41.0025C100.269 41.2775 99.8074 41.415 99.261 41.415ZM99.3435 40.6615C99.7652 40.6615 100.114 40.5588 100.389 40.3535C100.664 40.1482 100.869 39.8658 101.005 39.5065C101.14 39.1435 101.208 38.7328 101.208 38.2745C101.208 37.8088 101.14 37.3982 101.005 37.0425C100.869 36.6832 100.664 36.4027 100.389 36.201C100.117 35.9993 99.7744 35.8985 99.36 35.8985C98.9347 35.8985 98.5827 36.003 98.304 36.212C98.0254 36.421 97.8182 36.7052 97.6825 37.0645C97.5505 37.4238 97.4845 37.8272 97.4845 38.2745C97.4845 38.7255 97.5524 39.1325 97.688 39.4955C97.8274 39.8548 98.0345 40.139 98.3095 40.348C98.5845 40.557 98.9292 40.6615 99.3435 40.6615ZM101.208 41.25V36.7785H101.12V33.33H101.934V41.25H101.208ZM105.679 41.25V33.33H108.737C109.181 33.33 109.568 33.4217 109.898 33.605C110.228 33.7883 110.484 34.0358 110.668 34.3475C110.851 34.6555 110.943 34.9965 110.943 35.3705C110.943 35.7958 110.829 36.1753 110.602 36.509C110.374 36.839 110.07 37.0682 109.689 37.1965L109.678 36.927C110.191 37.0737 110.594 37.3303 110.888 37.697C111.181 38.0637 111.328 38.5073 111.328 39.028C111.328 39.4863 111.231 39.8823 111.036 40.216C110.842 40.546 110.569 40.8008 110.217 40.9805C109.865 41.1602 109.456 41.25 108.99 41.25H105.679ZM106.493 40.4745H108.792C109.115 40.4745 109.405 40.4177 109.661 40.304C109.918 40.1867 110.12 40.0217 110.266 39.809C110.417 39.5963 110.492 39.3397 110.492 39.039C110.492 38.7457 110.424 38.4817 110.288 38.247C110.153 38.0123 109.967 37.8253 109.733 37.686C109.502 37.543 109.238 37.4715 108.941 37.4715H106.493V40.4745ZM106.493 36.707H108.732C108.985 36.707 109.216 36.6502 109.425 36.5365C109.634 36.4192 109.799 36.2597 109.92 36.058C110.044 35.8563 110.107 35.6235 110.107 35.3595C110.107 34.9855 109.977 34.6812 109.716 34.4465C109.46 34.2118 109.131 34.0945 108.732 34.0945H106.493V36.707ZM114.697 41.3985C114.341 41.3985 114.029 41.3435 113.762 41.2335C113.498 41.1235 113.272 40.975 113.085 40.788C112.902 40.601 112.753 40.3883 112.64 40.15C112.526 39.908 112.444 39.6532 112.392 39.3855C112.341 39.1142 112.315 38.8447 112.315 38.577V35.31H113.129V38.3405C113.129 38.6668 113.16 38.9693 113.223 39.248C113.285 39.5267 113.384 39.7705 113.52 39.9795C113.659 40.1848 113.837 40.3443 114.053 40.458C114.273 40.5717 114.539 40.6285 114.851 40.6285C115.137 40.6285 115.388 40.579 115.604 40.48C115.824 40.381 116.008 40.2398 116.154 40.0565C116.305 39.8695 116.418 39.644 116.495 39.38C116.572 39.1123 116.611 38.8117 116.611 38.478L117.183 38.6045C117.183 39.2132 117.076 39.7247 116.864 40.139C116.651 40.5533 116.358 40.8668 115.984 41.0795C115.61 41.2922 115.181 41.3985 114.697 41.3985ZM116.693 41.25V39.787H116.611V35.31H117.419V41.25H116.693ZM121.261 41.415C120.707 41.415 120.234 41.2775 119.842 41.0025C119.45 40.7238 119.149 40.348 118.94 39.875C118.731 39.402 118.627 38.8685 118.627 38.2745C118.627 37.6842 118.729 37.1525 118.935 36.6795C119.144 36.2065 119.442 35.8325 119.831 35.5575C120.22 35.2825 120.685 35.145 121.228 35.145C121.785 35.145 122.255 35.2807 122.636 35.552C123.017 35.8233 123.305 36.1955 123.5 36.6685C123.698 37.1378 123.797 37.6732 123.797 38.2745C123.797 38.8648 123.699 39.3983 123.505 39.875C123.311 40.348 123.025 40.7238 122.647 41.0025C122.269 41.2775 121.807 41.415 121.261 41.415ZM121.344 40.6615C121.765 40.6615 122.114 40.5588 122.389 40.3535C122.664 40.1482 122.869 39.8658 123.005 39.5065C123.14 39.1435 123.208 38.7328 123.208 38.2745C123.208 37.8088 123.14 37.3982 123.005 37.0425C122.869 36.6832 122.664 36.4027 122.389 36.201C122.117 35.9993 121.774 35.8985 121.36 35.8985C120.935 35.8985 120.583 36.003 120.304 36.212C120.025 36.421 119.818 36.7052 119.683 37.0645C119.551 37.4238 119.485 37.8272 119.485 38.2745C119.485 38.7255 119.552 39.1325 119.688 39.4955C119.827 39.8548 120.035 40.139 120.31 40.348C120.585 40.557 120.929 40.6615 121.344 40.6615ZM123.208 41.25V36.7785H123.12V33.33H123.934V41.25H123.208ZM127.837 44.055C127.532 44.055 127.232 44.0092 126.935 43.9175C126.641 43.8295 126.37 43.6883 126.121 43.494C125.871 43.3033 125.662 43.054 125.494 42.746L126.225 42.339C126.39 42.669 126.621 42.9055 126.918 43.0485C127.219 43.1952 127.525 43.2685 127.837 43.2685C128.266 43.2685 128.612 43.1878 128.876 43.0265C129.144 42.8688 129.338 42.6342 129.459 42.3225C129.58 42.0108 129.639 41.6222 129.635 41.1565V39.5725H129.729V35.31H130.449V41.1675C130.449 41.3362 130.444 41.4975 130.433 41.6515C130.425 41.8092 130.409 41.9632 130.383 42.1135C130.313 42.5572 130.169 42.922 129.949 43.208C129.732 43.494 129.446 43.7067 129.091 43.846C128.739 43.9853 128.321 44.055 127.837 44.055ZM127.782 41.415C127.228 41.415 126.755 41.2775 126.363 41.0025C125.97 40.7238 125.67 40.348 125.461 39.875C125.252 39.402 125.147 38.8685 125.147 38.2745C125.147 37.6842 125.25 37.1525 125.455 36.6795C125.664 36.2065 125.963 35.8325 126.352 35.5575C126.74 35.2825 127.206 35.145 127.749 35.145C128.306 35.145 128.775 35.2807 129.157 35.552C129.538 35.8233 129.826 36.1955 130.02 36.6685C130.218 37.1378 130.317 37.6732 130.317 38.2745C130.317 38.8648 130.22 39.3983 130.026 39.875C129.831 40.348 129.545 40.7238 129.168 41.0025C128.79 41.2775 128.328 41.415 127.782 41.415ZM127.864 40.6615C128.286 40.6615 128.634 40.5588 128.909 40.3535C129.184 40.1482 129.389 39.8658 129.525 39.5065C129.661 39.1435 129.729 38.7328 129.729 38.2745C129.729 37.8088 129.661 37.3982 129.525 37.0425C129.389 36.6832 129.184 36.4027 128.909 36.201C128.638 35.9993 128.295 35.8985 127.881 35.8985C127.455 35.8985 127.103 36.003 126.825 36.212C126.546 36.421 126.339 36.7052 126.203 37.0645C126.071 37.4238 126.005 37.8272 126.005 38.2745C126.005 38.7255 126.073 39.1325 126.209 39.4955C126.348 39.8548 126.555 40.139 126.83 40.348C127.105 40.557 127.45 40.6615 127.864 40.6615ZM134.5 41.415C133.921 41.415 133.419 41.2867 132.993 41.03C132.572 40.7733 132.243 40.4122 132.009 39.9465C131.774 39.4808 131.657 38.9345 131.657 38.3075C131.657 37.6585 131.772 37.0975 132.003 36.6245C132.234 36.1515 132.559 35.7867 132.977 35.53C133.398 35.2733 133.895 35.145 134.467 35.145C135.054 35.145 135.554 35.2807 135.969 35.552C136.383 35.8197 136.697 36.2047 136.909 36.707C137.122 37.2093 137.219 37.8088 137.201 38.5055H136.376V38.2195C136.361 37.4495 136.194 36.8683 135.875 36.476C135.56 36.0837 135.098 35.8875 134.489 35.8875C133.851 35.8875 133.362 36.0947 133.021 36.509C132.683 36.9233 132.515 37.5137 132.515 38.28C132.515 39.028 132.683 39.6092 133.021 40.0235C133.362 40.4342 133.844 40.6395 134.467 40.6395C134.893 40.6395 135.263 40.5423 135.578 40.348C135.897 40.15 136.148 39.8658 136.332 39.4955L137.085 39.787C136.851 40.304 136.504 40.7055 136.046 40.9915C135.591 41.2738 135.076 41.415 134.5 41.415ZM132.229 38.5055V37.829H136.766V38.5055H132.229ZM141.655 41.25C141.322 41.3197 140.992 41.3472 140.665 41.3325C140.343 41.3178 140.053 41.2482 139.796 41.1235C139.543 40.9988 139.351 40.8045 139.219 40.5405C139.113 40.3205 139.054 40.0987 139.043 39.875C139.036 39.6477 139.032 39.3892 139.032 39.0995V33.66H139.835V39.0665C139.835 39.3158 139.837 39.5248 139.84 39.6935C139.848 39.8585 139.886 40.0052 139.956 40.1335C140.088 40.3792 140.297 40.5258 140.583 40.5735C140.873 40.6212 141.23 40.6102 141.655 40.5405V41.25ZM137.761 36.003V35.31H141.655V36.003H137.761ZM145.028 41.25V33.33H145.77L148.883 39.9905L151.98 33.33H152.733V41.2445H151.963V35.134L149.142 41.25H148.619L145.803 35.134V41.25H145.028ZM155.976 41.415C155.529 41.415 155.153 41.3343 154.849 41.173C154.548 41.0117 154.323 40.7972 154.172 40.5295C154.022 40.2618 153.947 39.9703 153.947 39.655C153.947 39.3323 154.011 39.0573 154.139 38.83C154.271 38.599 154.449 38.4102 154.673 38.2635C154.9 38.1168 155.162 38.005 155.459 37.928C155.76 37.8547 156.092 37.7905 156.455 37.7355C156.822 37.6768 157.179 37.6273 157.527 37.587C157.879 37.543 158.187 37.5008 158.451 37.4605L158.165 37.6365C158.176 37.0498 158.063 36.6153 157.824 36.333C157.586 36.0507 157.172 35.9095 156.581 35.9095C156.174 35.9095 155.83 36.0012 155.547 36.1845C155.269 36.3678 155.073 36.6575 154.959 37.0535L154.172 36.8225C154.308 36.2908 154.581 35.8783 154.992 35.585C155.403 35.2917 155.936 35.145 156.592 35.145C157.135 35.145 157.595 35.2477 157.973 35.453C158.354 35.6547 158.624 35.948 158.781 36.333C158.855 36.5053 158.902 36.6978 158.924 36.9105C158.946 37.1232 158.957 37.3395 158.957 37.5595V41.25H158.237V39.7595L158.446 39.8475C158.244 40.3572 157.931 40.7458 157.505 41.0135C157.08 41.2812 156.57 41.415 155.976 41.415ZM156.07 40.7165C156.448 40.7165 156.778 40.6487 157.06 40.513C157.342 40.3773 157.57 40.1922 157.742 39.9575C157.914 39.7192 158.026 39.4515 158.077 39.1545C158.121 38.9638 158.145 38.7548 158.149 38.5275C158.153 38.2965 158.154 38.1242 158.154 38.0105L158.462 38.17C158.187 38.2067 157.889 38.2433 157.566 38.28C157.247 38.3167 156.932 38.3588 156.62 38.4065C156.312 38.4542 156.033 38.511 155.784 38.577C155.615 38.6247 155.452 38.6925 155.294 38.7805C155.137 38.8648 155.007 38.9785 154.904 39.1215C154.805 39.2645 154.755 39.4423 154.755 39.655C154.755 39.8273 154.798 39.9942 154.882 40.1555C154.97 40.3168 155.109 40.4507 155.3 40.557C155.494 40.6633 155.751 40.7165 156.07 40.7165ZM164.679 41.25V38.2195C164.679 37.8895 164.648 37.587 164.586 37.312C164.523 37.0333 164.422 36.7913 164.283 36.586C164.147 36.377 163.97 36.2157 163.75 36.102C163.533 35.9883 163.269 35.9315 162.958 35.9315C162.672 35.9315 162.419 35.981 162.199 36.08C161.982 36.179 161.799 36.322 161.649 36.509C161.502 36.6923 161.39 36.916 161.313 37.18C161.236 37.444 161.198 37.7447 161.198 38.082L160.626 37.9555C160.626 37.3468 160.732 36.8353 160.945 36.421C161.157 36.0067 161.451 35.6932 161.825 35.4805C162.199 35.2678 162.628 35.1615 163.112 35.1615C163.467 35.1615 163.777 35.2165 164.041 35.3265C164.309 35.4365 164.534 35.585 164.718 35.772C164.905 35.959 165.055 36.1735 165.169 36.4155C165.282 36.6538 165.365 36.9087 165.416 37.18C165.467 37.4477 165.493 37.7153 165.493 37.983V41.25H164.679ZM160.384 41.25V35.31H161.115V36.773H161.198V41.25H160.384ZM168.62 41.415C168.173 41.415 167.797 41.3343 167.492 41.173C167.192 41.0117 166.966 40.7972 166.816 40.5295C166.666 40.2618 166.59 39.9703 166.59 39.655C166.59 39.3323 166.655 39.0573 166.783 38.83C166.915 38.599 167.093 38.4102 167.316 38.2635C167.544 38.1168 167.806 38.005 168.103 37.928C168.404 37.8547 168.735 37.7905 169.098 37.7355C169.465 37.6768 169.823 37.6273 170.171 37.587C170.523 37.543 170.831 37.5008 171.095 37.4605L170.809 37.6365C170.82 37.0498 170.706 36.6153 170.468 36.333C170.23 36.0507 169.815 35.9095 169.225 35.9095C168.818 35.9095 168.473 36.0012 168.191 36.1845C167.912 36.3678 167.716 36.6575 167.602 37.0535L166.816 36.8225C166.952 36.2908 167.225 35.8783 167.635 35.585C168.046 35.2917 168.58 35.145 169.236 35.145C169.779 35.145 170.239 35.2477 170.616 35.453C170.998 35.6547 171.267 35.948 171.425 36.333C171.498 36.5053 171.546 36.6978 171.568 36.9105C171.59 37.1232 171.601 37.3395 171.601 37.5595V41.25H170.88V39.7595L171.089 39.8475C170.888 40.3572 170.574 40.7458 170.149 41.0135C169.724 41.2812 169.214 41.415 168.62 41.415ZM168.713 40.7165C169.091 40.7165 169.421 40.6487 169.703 40.513C169.986 40.3773 170.213 40.1922 170.385 39.9575C170.558 39.7192 170.67 39.4515 170.721 39.1545C170.765 38.9638 170.789 38.7548 170.792 38.5275C170.796 38.2965 170.798 38.1242 170.798 38.0105L171.106 38.17C170.831 38.2067 170.532 38.2433 170.209 38.28C169.89 38.3167 169.575 38.3588 169.263 38.4065C168.955 38.4542 168.677 38.511 168.427 38.577C168.259 38.6247 168.096 38.6925 167.938 38.7805C167.78 38.8648 167.65 38.9785 167.547 39.1215C167.448 39.2645 167.399 39.4423 167.399 39.655C167.399 39.8273 167.441 39.9942 167.525 40.1555C167.613 40.3168 167.753 40.4507 167.943 40.557C168.138 40.6633 168.394 40.7165 168.713 40.7165ZM175.392 44.055C175.088 44.055 174.787 44.0092 174.49 43.9175C174.197 43.8295 173.926 43.6883 173.676 43.494C173.427 43.3033 173.218 43.054 173.049 42.746L173.781 42.339C173.946 42.669 174.177 42.9055 174.474 43.0485C174.774 43.1952 175.081 43.2685 175.392 43.2685C175.821 43.2685 176.168 43.1878 176.432 43.0265C176.699 42.8688 176.894 42.6342 177.015 42.3225C177.136 42.0108 177.194 41.6222 177.191 41.1565V39.5725H177.284V35.31H178.005V41.1675C178.005 41.3362 177.999 41.4975 177.988 41.6515C177.981 41.8092 177.964 41.9632 177.939 42.1135C177.869 42.5572 177.724 42.922 177.504 43.208C177.288 43.494 177.002 43.7067 176.646 43.846C176.294 43.9853 175.876 44.055 175.392 44.055ZM175.337 41.415C174.784 41.415 174.311 41.2775 173.918 41.0025C173.526 40.7238 173.225 40.348 173.016 39.875C172.807 39.402 172.703 38.8685 172.703 38.2745C172.703 37.6842 172.805 37.1525 173.011 36.6795C173.22 36.2065 173.519 35.8325 173.907 35.5575C174.296 35.2825 174.762 35.145 175.304 35.145C175.862 35.145 176.331 35.2807 176.712 35.552C177.094 35.8233 177.381 36.1955 177.576 36.6685C177.774 37.1378 177.873 37.6732 177.873 38.2745C177.873 38.8648 177.776 39.3983 177.581 39.875C177.387 40.348 177.101 40.7238 176.723 41.0025C176.346 41.2775 175.884 41.415 175.337 41.415ZM175.42 40.6615C175.841 40.6615 176.19 40.5588 176.465 40.3535C176.74 40.1482 176.945 39.8658 177.081 39.5065C177.216 39.1435 177.284 38.7328 177.284 38.2745C177.284 37.8088 177.216 37.3982 177.081 37.0425C176.945 36.6832 176.74 36.4027 176.465 36.201C176.193 35.9993 175.851 35.8985 175.436 35.8985C175.011 35.8985 174.659 36.003 174.38 36.212C174.102 36.421 173.894 36.7052 173.759 37.0645C173.627 37.4238 173.561 37.8272 173.561 38.2745C173.561 38.7255 173.629 39.1325 173.764 39.4955C173.904 39.8548 174.111 40.139 174.386 40.348C174.661 40.557 175.005 40.6615 175.42 40.6615ZM182.056 41.415C181.477 41.415 180.974 41.2867 180.549 41.03C180.127 40.7733 179.799 40.4122 179.564 39.9465C179.33 39.4808 179.212 38.9345 179.212 38.3075C179.212 37.6585 179.328 37.0975 179.559 36.6245C179.79 36.1515 180.114 35.7867 180.532 35.53C180.954 35.2733 181.451 35.145 182.023 35.145C182.61 35.145 183.11 35.2807 183.524 35.552C183.939 35.8197 184.252 36.2047 184.465 36.707C184.678 37.2093 184.775 37.8088 184.756 38.5055H183.931V38.2195C183.917 37.4495 183.75 36.8683 183.431 36.476C183.116 36.0837 182.654 35.8875 182.045 35.8875C181.407 35.8875 180.917 36.0947 180.576 36.509C180.239 36.9233 180.07 37.5137 180.07 38.28C180.07 39.028 180.239 39.6092 180.576 40.0235C180.917 40.4342 181.4 40.6395 182.023 40.6395C182.448 40.6395 182.819 40.5423 183.134 40.348C183.453 40.15 183.704 39.8658 183.887 39.4955L184.641 39.787C184.406 40.304 184.06 40.7055 183.601 40.9915C183.147 41.2738 182.632 41.415 182.056 41.415ZM179.784 38.5055V37.829H184.322V38.5055H179.784ZM185.977 41.25V35.31H186.703V36.74L186.56 36.553C186.626 36.377 186.712 36.2157 186.819 36.069C186.925 35.9187 187.04 35.7958 187.165 35.7005C187.319 35.5648 187.499 35.4622 187.704 35.3925C187.909 35.3192 188.117 35.277 188.326 35.266C188.535 35.2513 188.725 35.266 188.898 35.31V36.069C188.681 36.014 188.445 36.0012 188.188 36.0305C187.931 36.0598 187.695 36.1625 187.479 36.3385C187.281 36.4925 187.132 36.6777 187.033 36.894C186.934 37.1067 186.868 37.334 186.835 37.576C186.802 37.8143 186.786 38.0508 186.786 38.2855V41.25H185.977Z" fill="#777777"/>
<defs>
<clipPath id="clip0_9_2084">
<rect width="36" height="43" fill="white"/>
</clipPath>
</defs>
</svg>
