<svg width="265" height="87" viewBox="0 0 265 87" fill="none" xmlns="http://www.w3.org/2000/svg">
<g clip-path="url(#clip0_459_3215)">
<path fill-rule="evenodd" clip-rule="evenodd" d="M198.272 0H194.444C184.225 0.0273235 174.293 0.300558 167.068 0.765057C159.813 1.20223 155.726 1.80335 155.726 2.40447C155.726 3.00558 159.813 3.6067 167.068 4.04387C174.351 4.48105 184.138 4.67231 194.444 4.64499C204.663 4.61767 214.594 4.34443 221.82 3.87993C229.074 3.44276 233.162 2.84164 233.162 2.24052C233.162 1.63941 229.074 1.03829 221.82 0.601116C215.429 0.218588 207.139 0.0273235 198.272 0ZM52.2088 9.64519C38.5063 9.64519 27.4522 20.1101 27.4522 33.1434V35.6025C27.4522 46.1494 1.88966 45.4389 0.0760954 47.0237C-0.845079 47.8161 6.49553 55.9312 27.6537 59.0187C29.1794 59.2373 29.7264 62.3248 30.9066 64.8659C32.0869 67.407 33.5262 70.1667 35.714 72.0247C40.0896 75.7407 45.8469 77.9812 52.2088 77.9812H240.243C253.946 77.9812 265 67.5163 265 54.483V33.1434C265 20.1374 253.975 9.64519 240.243 9.64519H52.2088ZM24.4584 66.1228C24.2857 66.1228 22.9903 68.9371 24.7463 74.0739C25.4084 75.9866 26.5598 78.1178 28.4598 80.0031C30.043 81.5879 32.0005 82.8994 34.2747 83.9104C36.5488 84.9214 38.9381 85.6044 41.4426 86.0689C42.3062 86.2329 43.1698 86.3695 44.0622 86.4788C48.8983 87.1072 53.7345 87.0526 57.9661 86.8613C62.8887 86.6427 67.7824 86.1236 70.5171 85.7684C73.5397 85.3585 75.1518 85.0033 75.123 84.6208C75.123 84.2656 73.5109 83.9104 70.4308 83.6918C66.9476 83.4459 63.4356 83.4459 57.8798 83.3366C53.7057 83.2546 49.0423 83.1727 44.6091 82.5989C43.8031 82.4896 42.997 82.3803 42.191 82.2163C39.9169 81.8065 37.8154 81.2873 35.8867 80.495C33.958 79.7299 32.2884 78.7463 30.9354 77.5987C29.2946 76.2325 28.1431 74.5658 27.3371 73.063C25.2069 69.0464 24.9766 66.0955 24.4584 66.1228ZM107.134 82.353H104.86C92.2511 82.4349 82.003 83.5005 82.003 84.7574C82.003 86.0143 92.2511 87.0526 104.888 86.9979C117.497 86.916 127.745 85.8504 127.745 84.5935C127.745 83.9924 125.327 83.3912 121.038 82.9541C117.267 82.5715 112.373 82.3803 107.134 82.353Z" fill="white"/>
</g>
<defs>
<clipPath id="clip0_459_3215">
<rect width="265" height="87" fill="white"/>
</clipPath>
</defs>
</svg>
