<svg width="253" height="87" viewBox="0 0 253 87" fill="none" xmlns="http://www.w3.org/2000/svg">
<path fill-rule="evenodd" clip-rule="evenodd" d="M63.707 0H67.3623C77.1188 0.0273233 86.6006 0.300556 93.4989 0.765051C100.425 1.20222 104.327 1.80334 104.327 2.40445C104.327 3.00556 100.425 3.60667 93.4989 4.04384C86.5456 4.48101 77.2013 4.67228 67.3623 4.64495C57.6057 4.61763 48.124 4.3444 41.2257 3.8799C34.2999 3.44273 30.3973 2.84162 30.3973 2.24051C30.3973 1.6394 34.2999 1.03828 41.2257 0.601112C47.327 0.218586 55.2421 0.0273233 63.707 0ZM203.157 9.64511C216.239 9.64511 226.793 20.1099 226.793 33.1431V35.6022C226.793 46.149 251.198 45.4386 252.929 47.0233C253.809 47.8157 246.801 55.9307 226.6 59.0182C225.144 59.2368 224.622 62.3244 223.495 64.8654C222.368 67.4065 220.994 70.1661 218.905 72.0241C214.728 75.7401 209.231 77.9806 203.157 77.9806H23.6364C10.5544 77.9806 0.000776435 67.5158 0.000776435 54.4826V33.1431C0.000776435 20.1372 10.5269 9.64511 23.6364 9.64511H203.157ZM229.651 66.1223C229.816 66.1223 231.053 68.9366 229.376 74.0734C228.744 75.986 227.645 78.1172 225.831 80.0025C224.319 81.5873 222.45 82.8988 220.279 83.9097C218.108 84.9207 215.827 85.6038 213.436 86.0683C212.611 86.2322 211.787 86.3688 210.935 86.4781C206.318 87.1066 201.7 87.0519 197.66 86.8606C192.961 86.6421 188.289 86.1229 185.678 85.7677C182.792 85.3579 181.253 85.0027 181.28 84.6201C181.28 84.2649 182.819 83.9097 185.76 83.6911C189.086 83.4452 192.439 83.4452 197.743 83.3359C201.728 83.254 206.18 83.172 210.413 82.5982C211.182 82.4889 211.952 82.3796 212.721 82.2157C214.892 81.8058 216.899 81.2867 218.74 80.4943C220.581 79.7293 222.176 78.7456 223.467 77.5981C225.034 76.2319 226.133 74.5652 226.903 73.0624C228.936 69.0459 229.156 66.095 229.651 66.1223ZM150.719 82.3523H152.89C164.928 82.4343 174.712 83.4999 174.712 84.7568C174.712 86.0136 164.928 87.0519 152.863 86.9973C140.825 86.9153 131.041 85.8497 131.041 84.5928C131.041 83.9917 133.35 83.3906 137.445 82.9534C141.045 82.5709 145.717 82.3796 150.719 82.3523Z" fill="white"/>
</svg>
