<svg width="24" height="24" viewBox="0 0 24 24" fill="none" xmlns="http://www.w3.org/2000/svg">
<path d="M9.97049 5.57697L10.5727 7.24947C10.9032 8.16636 11.4318 8.99905 12.121 9.68821C12.8102 10.3774 13.6429 10.906 14.5597 11.2365L16.2322 11.8387C16.2653 11.8508 16.2938 11.8728 16.3139 11.9016C16.3341 11.9305 16.3449 11.9648 16.3449 12C16.3449 12.0351 16.3341 12.0695 16.3139 12.0983C16.2938 12.1272 16.2653 12.1491 16.2322 12.1612L14.5597 12.7635C13.6429 13.0939 12.8102 13.6226 12.121 14.3117C11.4318 15.0009 10.9032 15.8336 10.5727 16.7505L9.97049 18.423C9.95838 18.456 9.93642 18.4845 9.90758 18.5047C9.87874 18.5248 9.84442 18.5356 9.80924 18.5356C9.77406 18.5356 9.73974 18.5248 9.7109 18.5047C9.68206 18.4845 9.6601 18.456 9.64799 18.423L9.04574 16.7505C8.71528 15.8336 8.18663 15.0009 7.49748 14.3117C6.80832 13.6226 5.97562 13.0939 5.05874 12.7635L3.38624 12.1612C3.35321 12.1491 3.3247 12.1272 3.30456 12.0983C3.28442 12.0695 3.27362 12.0351 3.27362 12C3.27362 11.9648 3.28442 11.9305 3.30456 11.9016C3.3247 11.8728 3.35321 11.8508 3.38624 11.8387L5.05874 11.2365C5.97562 10.906 6.80832 10.3774 7.49748 9.68821C8.18663 8.99905 8.71528 8.16636 9.04574 7.24947L9.64799 5.57697C9.65977 5.54361 9.6816 5.51473 9.71048 5.49429C9.73936 5.47386 9.77386 5.46289 9.80924 5.46289C9.84462 5.46289 9.87912 5.47386 9.908 5.49429C9.93688 5.51473 9.95871 5.54361 9.97049 5.57697ZM17.499 1.55772L17.8042 2.40447C17.9717 2.8687 18.2395 3.2903 18.5884 3.63927C18.9374 3.98824 19.359 4.25599 19.8232 4.42347L20.67 4.72872C20.6868 4.73483 20.7013 4.74595 20.7115 4.76058C20.7217 4.7752 20.7272 4.79262 20.7272 4.81047C20.7272 4.82833 20.7217 4.84575 20.7115 4.86037C20.7013 4.875 20.6868 4.88612 20.67 4.89222L19.8232 5.19747C19.359 5.36495 18.9374 5.63271 18.5884 5.98167C18.2395 6.33064 17.9717 6.75225 17.8042 7.21647L17.499 8.06322C17.4929 8.08 17.4818 8.09449 17.4671 8.10473C17.4525 8.11497 17.4351 8.12046 17.4172 8.12046C17.3994 8.12046 17.382 8.11497 17.3673 8.10473C17.3527 8.09449 17.3416 8.08 17.3355 8.06322L17.0302 7.21647C16.8628 6.75225 16.595 6.33064 16.246 5.98167C15.8971 5.63271 15.4755 5.36495 15.0112 5.19747L14.1645 4.89222C14.1477 4.88612 14.1332 4.875 14.123 4.86037C14.1127 4.84575 14.1073 4.82833 14.1073 4.81047C14.1073 4.79262 14.1127 4.7752 14.123 4.76058C14.1332 4.74595 14.1477 4.73483 14.1645 4.72872L15.0112 4.42347C15.4755 4.25599 15.8971 3.98824 16.246 3.63927C16.595 3.2903 16.8628 2.8687 17.0302 2.40447L17.3355 1.55772C17.3416 1.54095 17.3527 1.52646 17.3673 1.51622C17.382 1.50598 17.3994 1.50049 17.4172 1.50049C17.4351 1.50049 17.4525 1.50598 17.4671 1.51622C17.4818 1.52646 17.4929 1.54095 17.499 1.55772ZM17.499 15.9375L17.8042 16.7842C17.9717 17.2485 18.2395 17.6701 18.5884 18.019C18.9374 18.368 19.359 18.6357 19.8232 18.8032L20.67 19.1085C20.6868 19.1146 20.7013 19.1257 20.7115 19.1403C20.7217 19.155 20.7272 19.1724 20.7272 19.1902C20.7272 19.2081 20.7217 19.2255 20.7115 19.2401C20.7013 19.2547 20.6868 19.2659 20.67 19.272L19.8232 19.5772C19.359 19.7447 18.9374 20.0125 18.5884 20.3614C18.2395 20.7104 17.9717 21.132 17.8042 21.5962L17.499 22.443C17.4929 22.4597 17.4818 22.4742 17.4671 22.4845C17.4525 22.4947 17.4351 22.5002 17.4172 22.5002C17.3994 22.5002 17.382 22.4947 17.3673 22.4845C17.3527 22.4742 17.3416 22.4597 17.3355 22.443L17.0302 21.5962C16.8628 21.132 16.595 20.7104 16.246 20.3614C15.8971 20.0125 15.4755 19.7447 15.0112 19.5772L14.1645 19.272C14.1477 19.2659 14.1332 19.2547 14.123 19.2401C14.1127 19.2255 14.1073 19.2081 14.1073 19.1902C14.1073 19.1724 14.1127 19.155 14.123 19.1403C14.1332 19.1257 14.1477 19.1146 14.1645 19.1085L15.0112 18.8032C15.4755 18.6357 15.8971 18.368 16.246 18.019C16.595 17.6701 16.8628 17.2485 17.0302 16.7842L17.3355 15.9375C17.3632 15.861 17.472 15.861 17.499 15.9375Z" fill="white"/>
</svg>
